<?xml version="1.0" encoding="UTF-8"?>
<!DOCTYPE svg PUBLIC "-//W3C//DTD SVG 1.1//EN" "http://www.w3.org/Graphics/SVG/1.1/DTD/svg11.dtd">
<svg xmlns="http://www.w3.org/2000/svg" version="1.1" width="331px" height="301px" style="shape-rendering:geometricPrecision; text-rendering:geometricPrecision; image-rendering:optimizeQuality; fill-rule:evenodd; clip-rule:evenodd" xmlns:xlink="http://www.w3.org/1999/xlink">
<g><path style="opacity:1" fill="#fefefe" d="M -0.5,-0.5 C 109.833,-0.5 220.167,-0.5 330.5,-0.5C 330.5,99.8333 330.5,200.167 330.5,300.5C 220.167,300.5 109.833,300.5 -0.5,300.5C -0.5,200.167 -0.5,99.8333 -0.5,-0.5 Z"/></g>
<g><path style="opacity:1" fill="#56806d" d="M 20.5,2.5 C 20.7274,7.5436 20.394,12.5436 19.5,17.5C 23.0964,21.1174 23.4297,25.1174 20.5,29.5C 21.8619,37.7823 24.5285,45.6156 28.5,53C 26.4457,57.9154 26.4457,62.9154 28.5,68C 27.2563,73.471 26.2563,78.971 25.5,84.5C 21.5,85.1667 21.5,85.8333 25.5,86.5C 25.7845,88.4147 25.4511,90.0813 24.5,91.5C 22.8429,96.7548 22.5096,102.088 23.5,107.5C 24.552,107.649 25.552,107.483 26.5,107C 24.2248,103.454 23.8915,99.6209 25.5,95.5C 25.8047,91.8149 26.8047,88.3149 28.5,85C 28.2305,83.4857 27.8971,81.9857 27.5,80.5C 30.1424,69.6456 31.8091,58.6456 32.5,47.5C 33.086,47.2907 33.586,46.9574 34,46.5C 34.21,48.0581 34.71,49.3915 35.5,50.5C 35.2053,52.7354 35.5386,54.7354 36.5,56.5C 37.9404,78.4163 41.1071,100.083 46,121.5C 46.8596,124.633 48.3596,127.3 50.5,129.5C 52.5258,132.518 54.5258,135.518 56.5,138.5C 55.2329,141.272 55.2329,143.939 56.5,146.5C 57.2775,163.822 57.6108,181.155 57.5,198.5C 57.5,198.833 57.5,199.167 57.5,199.5C 56.5,199.5 55.5,199.5 54.5,199.5C 54.6567,198.127 54.49,196.793 54,195.5C 51.8316,197.455 49.4983,198.121 47,197.5C 43.2562,201.703 42.0895,201.036 43.5,195.5C 42.6667,195.167 41.8333,194.833 41,194.5C 36.9001,195.229 34.4001,197.562 33.5,201.5C 32.3112,202.429 30.9778,202.762 29.5,202.5C 29.5674,203.959 29.2341,205.292 28.5,206.5C 27.8826,206.611 27.3826,206.944 27,207.5C 26.6667,206.167 26.3333,204.833 26,203.5C 25.8333,204.333 25.6667,205.167 25.5,206C 26.8167,210.082 27.8167,214.248 28.5,218.5C 29.2975,218.043 29.6309,217.376 29.5,216.5C 30.4281,212.638 31.9281,208.971 34,205.5C 34.8699,206.108 35.3699,206.941 35.5,208C 34.2259,214.334 35.2259,214.834 38.5,209.5C 38.7871,211.526 39.1204,213.526 39.5,215.5C 38.2223,219.213 37.2223,222.88 36.5,226.5C 35.6909,224.708 35.1909,222.708 35,220.5C 34.2968,229.272 32.9635,237.939 31,246.5C 30.6667,246.167 30.3333,245.833 30,245.5C 28.1748,247.48 27.3415,249.813 27.5,252.5C 27.1018,262.626 25.9352,272.626 24,282.5C 23.7216,281.584 23.2216,280.918 22.5,280.5C 23.388,277.946 23.7214,275.279 23.5,272.5C 22.1667,272.5 20.8333,272.5 19.5,272.5C 19.1755,279.687 19.5088,286.687 20.5,293.5C 21.2341,294.708 21.5674,296.041 21.5,297.5C 14.8333,297.5 8.16667,297.5 1.5,297.5C 1.5,199.167 1.5,100.833 1.5,2.5C 7.83333,2.5 14.1667,2.5 20.5,2.5 Z"/></g>
<g><path style="opacity:1" fill="#59806d" d="M 20.5,2.5 C 77.8333,2.5 135.167,2.5 192.5,2.5C 192.279,3.73485 191.612,4.73485 190.5,5.5C 190.709,6.08605 191.043,6.58605 191.5,7C 190.333,7.5 189.5,8.33333 189,9.5C 188.502,12.8168 188.335,16.1501 188.5,19.5C 186.365,19.147 185.032,19.9803 184.5,22C 185.968,29.4063 188.802,36.2396 193,42.5C 195.414,44.5147 197.914,46.348 200.5,48C 200.138,49.2247 199.638,50.3914 199,51.5C 193.998,47.3297 189.164,42.9964 184.5,38.5C 183.119,36.7259 183.452,35.2259 185.5,34C 184.845,32.5134 183.845,31.3467 182.5,30.5C 181.758,32.3497 180.758,33.0164 179.5,32.5C 180.833,33.6199 181.333,34.9532 181,36.5C 178.226,35.2357 176.726,36.2357 176.5,39.5C 172.574,40.4278 169.907,42.7611 168.5,46.5C 168.662,44.4727 168.495,42.4727 168,40.5C 167,41.1667 166,41.8333 165,42.5C 164.696,40.5595 163.863,38.8928 162.5,37.5C 163.002,36.479 163.668,36.3123 164.5,37C 165.191,38.0674 165.691,39.2341 166,40.5C 167.011,39.6634 168.178,39.33 169.5,39.5C 169.98,36.3148 169.314,33.4815 167.5,31C 164.696,30.029 162.696,30.8624 161.5,33.5C 160.698,36.4486 160.364,39.4486 160.5,42.5C 159.388,40.4006 158.721,38.0673 158.5,35.5C 156.708,35.366 155.042,35.6993 153.5,36.5C 153.5,34.5 153.5,32.5 153.5,30.5C 150.956,30.1043 148.789,30.771 147,32.5C 146.458,42.2102 146.958,51.8768 148.5,61.5C 148.333,62.8333 148.167,64.1667 148,65.5C 147.79,63.9419 147.29,62.6085 146.5,61.5C 145.596,60.791 145.263,59.791 145.5,58.5C 131.607,61.7349 121.607,69.7349 115.5,82.5C 110.077,81.1919 104.911,79.1919 100,76.5C 99.6667,78.5 99.3333,80.5 99,82.5C 98.7096,80.0796 98.2096,77.7463 97.5,75.5C 98.0315,71.6935 98.0315,67.6935 97.5,63.5C 96.5,63.5 95.5,63.5 94.5,63.5C 95.0965,61.602 95.0965,59.9354 94.5,58.5C 92.1879,50.9784 91.8546,43.3118 93.5,35.5C 93.3333,34.5 93.1667,33.5 93,32.5C 92.7216,33.4158 92.2216,34.0825 91.5,34.5C 85.4193,16.457 73.086,9.95697 54.5,15C 47.2578,18.0743 42.2578,23.241 39.5,30.5C 37.5516,32.3204 36.5516,34.6538 36.5,37.5C 35.6204,39.1368 34.9537,40.9701 34.5,43C 35.3223,45.4339 35.6556,47.9339 35.5,50.5C 34.71,49.3915 34.21,48.0581 34,46.5C 33.586,46.9574 33.086,47.2907 32.5,47.5C 31.8091,58.6456 30.1424,69.6456 27.5,80.5C 27.8971,81.9857 28.2305,83.4857 28.5,85C 26.8047,88.3149 25.8047,91.8149 25.5,95.5C 24.5655,94.4324 24.2322,93.099 24.5,91.5C 25.4511,90.0813 25.7845,88.4147 25.5,86.5C 21.5,85.8333 21.5,85.1667 25.5,84.5C 26.2563,78.971 27.2563,73.471 28.5,68C 26.4457,62.9154 26.4457,57.9154 28.5,53C 24.5285,45.6156 21.8619,37.7823 20.5,29.5C 23.4297,25.1174 23.0964,21.1174 19.5,17.5C 20.394,12.5436 20.7274,7.5436 20.5,2.5 Z"/></g>
<g><path style="opacity:1" fill="#59806c" d="M 192.5,2.5 C 237.833,2.5 283.167,2.5 328.5,2.5C 328.5,100.833 328.5,199.167 328.5,297.5C 320.167,297.5 311.833,297.5 303.5,297.5C 303.461,296.417 303.127,295.417 302.5,294.5C 303.898,292.87 304.898,291.036 305.5,289C 304.692,288.692 304.025,288.192 303.5,287.5C 306.262,284.381 306.762,281.048 305,277.5C 303.926,267.943 304.926,258.609 308,249.5C 310.107,252.981 309.607,256.147 306.5,259C 307.576,261.474 308.576,263.974 309.5,266.5C 311.614,262.05 313.114,257.383 314,252.5C 315.609,251.853 317.109,251.02 318.5,250C 316.68,248.24 315.68,246.073 315.5,243.5C 319.083,235.046 319.416,226.379 316.5,217.5C 318.689,212.861 318.522,208.194 316,203.5C 313.031,200.129 309.531,197.295 305.5,195C 304.427,193.406 303.427,191.906 302.5,190.5C 296.545,190.435 290.545,190.769 284.5,191.5C 283.665,194.14 283.498,196.807 284,199.5C 283.392,197.934 282.558,196.6 281.5,195.5C 280.99,192.017 280.323,188.684 279.5,185.5C 279.5,184.833 279.167,184.5 278.5,184.5C 278.705,176.133 278.371,167.8 277.5,159.5C 277.429,139.155 277.263,118.822 277,98.5C 277.351,94.4438 278.685,90.7772 281,87.5C 284.665,84.6005 288.165,81.6005 291.5,78.5C 293.752,78.0844 295.252,76.751 296,74.5C 297.219,60.5032 298.386,46.5032 299.5,32.5C 299.392,31.5581 299.059,30.7247 298.5,30C 301.08,28.5186 301.913,26.352 301,23.5C 300.178,21.2115 299.511,18.8782 299,16.5C 298.173,13.5836 296.506,12.9169 294,14.5C 291.797,11.9713 289.631,11.9713 287.5,14.5C 288.804,16.0157 288.304,16.6824 286,16.5C 282.641,15.9403 279.308,15.2736 276,14.5C 275.235,14.5699 274.735,14.9033 274.5,15.5C 273.842,16.3984 273.176,17.3984 272.5,18.5C 271.614,17.675 271.281,16.675 271.5,15.5C 267.167,15.5 262.833,15.5 258.5,15.5C 255.555,14.5325 252.555,14.3658 249.5,15C 248.8,18.9376 246.467,22.1043 242.5,24.5C 241.5,24.5 240.5,24.5 239.5,24.5C 239.5,28.1667 239.5,31.8333 239.5,35.5C 240.833,35.5 242.167,35.5 243.5,35.5C 243.5,46.5 243.5,57.5 243.5,68.5C 242.167,68.5 240.833,68.5 239.5,68.5C 239.5,72.1667 239.5,75.8333 239.5,79.5C 240.833,79.5 242.167,79.5 243.5,79.5C 243.5,80.8333 243.5,82.1667 243.5,83.5C 244.5,83.5 245.5,83.5 246.5,83.5C 247.5,82.8333 248.5,82.1667 249.5,81.5C 251.018,84.0607 253.185,84.7274 256,83.5C 257.261,83.7591 258.261,84.4258 259,85.5C 259.417,84.244 260.25,83.5774 261.5,83.5C 264.223,86.0624 266.389,89.0624 268,92.5C 268.986,99.1265 269.486,105.793 269.5,112.5C 268.748,140.227 267.414,167.893 265.5,195.5C 264.505,183.678 264.172,171.678 264.5,159.5C 266.343,148.279 266.843,136.945 266,125.5C 264.438,123.139 262.605,122.139 260.5,122.5C 260.953,121.542 261.619,120.708 262.5,120C 260.583,120.027 258.916,120.861 257.5,122.5C 256.653,114.307 252.32,111.307 244.5,113.5C 241.617,117.33 239.784,121.663 239,126.5C 237.907,128.349 236.574,130.016 235,131.5C 234.501,125.843 234.334,120.176 234.5,114.5C 232.833,114.5 231.167,114.5 229.5,114.5C 229.167,113.833 228.833,113.167 228.5,112.5C 232.446,112.512 234.113,110.512 233.5,106.5C 231.833,106.5 230.167,106.5 228.5,106.5C 230.292,105.691 232.292,105.191 234.5,105C 231.665,103.56 231.165,101.727 233,99.5C 234.289,104.784 235.622,104.784 237,99.5C 237.856,91.7682 237.523,84.1016 236,76.5C 234.599,74.8078 232.766,74.1412 230.5,74.5C 230.607,76.9032 229.607,78.7365 227.5,80C 225.221,80.4728 223.221,81.4728 221.5,83C 219.288,83.7891 217.288,83.6225 215.5,82.5C 214.078,79.5653 212.412,76.732 210.5,74C 209.5,73.6667 208.5,73.3333 207.5,73C 205.03,69.2735 201.697,66.7735 197.5,65.5C 197.5,64.1667 196.833,63.5 195.5,63.5C 193.891,62.2291 192.058,61.2291 190,60.5C 189.601,60.7284 189.435,61.0618 189.5,61.5C 188.566,60.4324 188.232,59.099 188.5,57.5C 187.041,57.4326 185.708,57.7659 184.5,58.5C 184.5,57.1667 184.5,55.8333 184.5,54.5C 188.314,54.3491 189.981,52.3491 189.5,48.5C 187.833,48.5 186.167,48.5 184.5,48.5C 183.167,45.1667 183.167,41.8333 184.5,38.5C 189.164,42.9964 193.998,47.3297 199,51.5C 199.638,50.3914 200.138,49.2247 200.5,48C 197.914,46.348 195.414,44.5147 193,42.5C 188.802,36.2396 185.968,29.4063 184.5,22C 185.032,19.9803 186.365,19.147 188.5,19.5C 188.335,16.1501 188.502,12.8168 189,9.5C 189.5,8.33333 190.333,7.5 191.5,7C 191.043,6.58605 190.709,6.08605 190.5,5.5C 191.612,4.73485 192.279,3.73485 192.5,2.5 Z"/></g>
<g><path style="opacity:1" fill="#74ad8b" d="M 258.5,15.5 C 262.833,15.5 267.167,15.5 271.5,15.5C 271.281,16.675 271.614,17.675 272.5,18.5C 273.176,17.3984 273.842,16.3984 274.5,15.5C 274.5,16.8333 274.5,18.1667 274.5,19.5C 279.032,19.1818 283.366,19.5151 287.5,20.5C 276.5,20.5 265.5,20.5 254.5,20.5C 259.608,19.0599 264.941,18.0599 270.5,17.5C 266.353,16.833 262.353,16.1663 258.5,15.5 Z"/></g>
<g><path style="opacity:1" fill="#678b72" d="M 59.5,20.5 C 58.1127,22.8766 57.2794,25.5432 57,28.5C 55.9345,58.3772 56.7678,88.0439 59.5,117.5C 60.8333,121.5 60.8333,125.5 59.5,129.5C 58.0126,126.055 56.846,122.388 56,118.5C 52.9835,96.9355 51.4835,75.2688 51.5,53.5C 51.1614,44.7741 51.6614,36.1074 53,27.5C 53.8917,24.7163 55.0584,22.0496 56.5,19.5C 57.723,18.3861 59.0563,18.2195 60.5,19C 59.944,19.3826 59.6107,19.8826 59.5,20.5 Z"/></g>
<g><path style="opacity:1" fill="#fefefe" d="M 254.5,20.5 C 265.5,20.5 276.5,20.5 287.5,20.5C 294.896,20.2129 297.896,23.8796 296.5,31.5C 295.825,47.3023 294.158,62.9689 291.5,78.5C 288.165,81.6005 284.665,84.6005 281,87.5C 278.685,90.7772 277.351,94.4438 277,98.5C 277.263,118.822 277.429,139.155 277.5,159.5C 276.288,160.23 275.288,161.23 274.5,162.5C 273.481,161.313 272.314,160.313 271,159.5C 267.587,170.026 267.921,180.36 272,190.5C 272.667,189.167 273.333,189.167 274,190.5C 274.16,186.713 274.826,183.046 276,179.5C 276.692,180.025 277.192,180.692 277.5,181.5C 276.036,183.993 276.203,186.326 278,188.5C 278.49,187.207 278.657,185.873 278.5,184.5C 279.167,184.5 279.5,184.833 279.5,185.5C 279.179,191.026 279.512,196.36 280.5,201.5C 281.109,205.605 281.775,209.605 282.5,213.5C 282.5,229.5 282.5,245.5 282.5,261.5C 281.839,263.134 281.506,264.967 281.5,267C 282.239,271.52 282.739,276.02 283,280.5C 281.955,284.04 279.788,286.374 276.5,287.5C 276.167,287.5 275.833,287.5 275.5,287.5C 273.167,287.5 270.833,287.5 268.5,287.5C 262.801,285.109 260.468,280.776 261.5,274.5C 262.401,273.71 263.068,272.71 263.5,271.5C 264.985,257.776 264.651,244.109 262.5,230.5C 262.5,224.833 262.5,219.167 262.5,213.5C 263.384,208.196 264.051,202.863 264.5,197.5C 265.338,197.158 265.672,196.492 265.5,195.5C 267.414,167.893 268.748,140.227 269.5,112.5C 269.486,105.793 268.986,99.1265 268,92.5C 266.389,89.0624 264.223,86.0624 261.5,83.5C 257.286,80.1099 254.453,75.7766 253,70.5C 252.082,63.0278 251.249,55.6945 250.5,48.5C 250.5,47.5 250.5,46.5 250.5,45.5C 250.5,38.1667 250.5,30.8333 250.5,23.5C 251.833,22.5 253.167,21.5 254.5,20.5 Z"/></g>
<g><path style="opacity:1" fill="#578169" d="M 258.5,15.5 C 262.353,16.1663 266.353,16.833 270.5,17.5C 264.941,18.0599 259.608,19.0599 254.5,20.5C 253.167,21.5 251.833,22.5 250.5,23.5C 249.603,22.4019 248.77,22.4019 248,23.5C 247.333,32.1667 247.333,40.8333 248,49.5C 248.333,41.1667 248.667,32.8333 249,24.5C 249.171,31.6787 249.671,38.6787 250.5,45.5C 250.5,46.5 250.5,47.5 250.5,48.5C 250.279,49.7348 249.612,50.7348 248.5,51.5C 249.002,53.6581 249.002,55.9914 248.5,58.5C 248.288,61.0114 248.955,63.1781 250.5,65C 248.923,67.9569 249.256,70.6236 251.5,73C 250.167,74.6667 250.167,76.3333 251.5,78C 248.833,79 248.833,80 251.5,81C 250.906,81.4643 250.239,81.631 249.5,81.5C 248.5,82.1667 247.5,82.8333 246.5,83.5C 245.032,82.2209 244.365,80.5542 244.5,78.5C 243.167,78.5 241.833,78.5 240.5,78.5C 240.5,75.5 240.5,72.5 240.5,69.5C 241.833,69.5 243.167,69.5 244.5,69.5C 244.5,57.8333 244.5,46.1667 244.5,34.5C 243.167,34.5 241.833,34.5 240.5,34.5C 240.06,30.8215 240.727,27.4882 242.5,24.5C 246.467,22.1043 248.8,18.9376 249.5,15C 252.555,14.3658 255.555,14.5325 258.5,15.5 Z"/></g>
<g><path style="opacity:1" fill="#6e9077" d="M 46.5,100.5 C 48.1113,108.444 49.4446,116.444 50.5,124.5C 50.5654,124.938 50.3988,125.272 50,125.5C 41.9963,99.8144 37.8297,73.4811 37.5,46.5C 37.371,41.038 38.0376,35.7047 39.5,30.5C 41.9816,27.5707 44.4816,24.5707 47,21.5C 47.5,22 48,22.5 48.5,23C 46.5987,25.9696 45.0987,29.1363 44,32.5C 42.9975,55.2403 43.8309,77.907 46.5,100.5 Z"/></g>
<g><path style="opacity:1" fill="#6c8f76" d="M 50.5,64.5 C 50.2903,83.8257 51.6236,102.992 54.5,122C 54.3333,123.5 54.1667,125 54,126.5C 52.3764,118.079 50.5431,109.746 48.5,101.5C 45.0101,79.6375 43.8434,57.6375 45,35.5C 46.0725,29.3551 48.7391,24.0217 53,19.5C 53.5,20 54,20.5 54.5,21C 52.2175,24.5118 50.7175,28.3451 50,32.5C 49.1745,43.3414 49.3412,54.008 50.5,64.5 Z"/></g>
<g><path style="opacity:1" fill="#66a481" d="M 250.5,23.5 C 250.5,30.8333 250.5,38.1667 250.5,45.5C 249.671,38.6787 249.171,31.6787 249,24.5C 248.667,32.8333 248.333,41.1667 248,49.5C 247.333,40.8333 247.333,32.1667 248,23.5C 248.77,22.4019 249.603,22.4019 250.5,23.5 Z"/></g>
<g><path style="opacity:1" fill="#658971" d="M 89.5,43.5 C 89.5,50.1667 89.5,56.8333 89.5,63.5C 87.7407,83.0561 84.574,102.389 80,121.5C 79.1016,124.069 77.935,126.402 76.5,128.5C 83.3929,96.8944 86.2262,64.8944 85,32.5C 83.6939,28.5544 81.8606,24.8878 79.5,21.5C 80.0016,20.479 80.6683,20.3123 81.5,21C 88.2226,26.9978 90.8892,34.4978 89.5,43.5 Z"/></g>
<g><path style="opacity:1" fill="#fefefe" d="M 160.5,42.5 C 161.634,45.8988 162.967,49.2321 164.5,52.5C 166.337,50.8236 167.67,48.8236 168.5,46.5C 169.907,42.7611 172.574,40.4278 176.5,39.5C 176.168,51.8513 176.501,64.1847 177.5,76.5C 179.134,76.032 180.3,75.032 181,73.5C 182.03,69.2273 182.697,64.894 183,60.5C 183.278,59.5842 183.778,58.9175 184.5,58.5C 185.708,57.7659 187.041,57.4326 188.5,57.5C 188.232,59.099 188.566,60.4324 189.5,61.5C 189.334,65.8461 189.501,70.1794 190,74.5C 193.44,71.6201 195.273,67.9534 195.5,63.5C 196.833,63.5 197.5,64.1667 197.5,65.5C 196.264,71.8813 192.764,76.2146 187,78.5C 186.329,77.7476 185.496,77.4142 184.5,77.5C 183.735,77.0766 182.902,76.7432 182,76.5C 178.283,80.0071 174.283,80.3405 170,77.5C 169.667,68.1667 169.333,58.8333 169,49.5C 167.627,52.4125 166.127,55.2458 164.5,58C 163.002,58.5847 162.002,58.0847 161.5,56.5C 160.493,52.1414 159.327,47.808 158,43.5C 156.669,53.4499 156.169,63.4499 156.5,73.5C 156.664,76.1873 156.497,78.854 156,81.5C 155.292,82.3805 154.458,83.0472 153.5,83.5C 152.5,83.5 151.5,83.5 150.5,83.5C 150.183,68.0888 150.517,52.7554 151.5,37.5C 152.167,37.1667 152.833,36.8333 153.5,36.5C 155.042,35.6993 156.708,35.366 158.5,35.5C 158.721,38.0673 159.388,40.4006 160.5,42.5 Z"/></g>
<g><path style="opacity:1" fill="#536461" d="M 184.5,38.5 C 183.167,41.8333 183.167,45.1667 184.5,48.5C 183.167,50.5 183.167,52.5 184.5,54.5C 184.5,55.8333 184.5,57.1667 184.5,58.5C 183.778,58.9175 183.278,59.5842 183,60.5C 182.697,64.894 182.03,69.2273 181,73.5C 180.3,75.032 179.134,76.032 177.5,76.5C 176.501,64.1847 176.168,51.8513 176.5,39.5C 176.726,36.2357 178.226,35.2357 181,36.5C 181.333,34.9532 180.833,33.6199 179.5,32.5C 180.758,33.0164 181.758,32.3497 182.5,30.5C 183.845,31.3467 184.845,32.5134 185.5,34C 183.452,35.2259 183.119,36.7259 184.5,38.5 Z"/></g>
<g><path style="opacity:1" fill="#60a681" d="M 242.5,24.5 C 240.727,27.4882 240.06,30.8215 240.5,34.5C 241.833,34.5 243.167,34.5 244.5,34.5C 244.5,46.1667 244.5,57.8333 244.5,69.5C 243.167,69.5 241.833,69.5 240.5,69.5C 240.5,72.5 240.5,75.5 240.5,78.5C 241.833,78.5 243.167,78.5 244.5,78.5C 244.365,80.5542 245.032,82.2209 246.5,83.5C 245.5,83.5 244.5,83.5 243.5,83.5C 243.5,82.1667 243.5,80.8333 243.5,79.5C 242.167,79.5 240.833,79.5 239.5,79.5C 239.5,75.8333 239.5,72.1667 239.5,68.5C 240.833,68.5 242.167,68.5 243.5,68.5C 243.5,57.5 243.5,46.5 243.5,35.5C 242.167,35.5 240.833,35.5 239.5,35.5C 239.5,31.8333 239.5,28.1667 239.5,24.5C 240.5,24.5 241.5,24.5 242.5,24.5 Z"/></g>
<g><path style="opacity:1" fill="#fafbfa" d="M 39.5,30.5 C 38.0376,35.7047 37.371,41.038 37.5,46.5C 37.8297,73.4811 41.9963,99.8144 50,125.5C 50.3988,125.272 50.5654,124.938 50.5,124.5C 51.7199,126.05 51.7199,127.716 50.5,129.5C 48.3596,127.3 46.8596,124.633 46,121.5C 41.1071,100.083 37.9404,78.4163 36.5,56.5C 36.5,50.1667 36.5,43.8333 36.5,37.5C 36.5516,34.6538 37.5516,32.3204 39.5,30.5 Z"/></g>
<g><path style="opacity:1" fill="#506461" d="M 168.5,46.5 C 167.67,48.8236 166.337,50.8236 164.5,52.5C 162.967,49.2321 161.634,45.8988 160.5,42.5C 160.364,39.4486 160.698,36.4486 161.5,33.5C 162.696,30.8624 164.696,30.029 167.5,31C 169.314,33.4815 169.98,36.3148 169.5,39.5C 168.178,39.33 167.011,39.6634 166,40.5C 165.691,39.2341 165.191,38.0674 164.5,37C 163.668,36.3123 163.002,36.479 162.5,37.5C 163.863,38.8928 164.696,40.5595 165,42.5C 166,41.8333 167,41.1667 168,40.5C 168.495,42.4727 168.662,44.4727 168.5,46.5 Z"/></g>
<g><path style="opacity:1" fill="#70ac8b" d="M 36.5,37.5 C 36.5,43.8333 36.5,50.1667 36.5,56.5C 35.5386,54.7354 35.2053,52.7354 35.5,50.5C 35.6556,47.9339 35.3223,45.4339 34.5,43C 34.9537,40.9701 35.6204,39.1368 36.5,37.5 Z"/></g>
<g><path style="opacity:1" fill="#688f76" d="M 291.5,78.5 C 294.158,62.9689 295.825,47.3023 296.5,31.5C 297.896,23.8796 294.896,20.2129 287.5,20.5C 283.366,19.5151 279.032,19.1818 274.5,19.5C 274.5,18.1667 274.5,16.8333 274.5,15.5C 274.735,14.9033 275.235,14.5699 276,14.5C 279.308,15.2736 282.641,15.9403 286,16.5C 288.304,16.6824 288.804,16.0157 287.5,14.5C 289.631,11.9713 291.797,11.9713 294,14.5C 296.506,12.9169 298.173,13.5836 299,16.5C 299.511,18.8782 300.178,21.2115 301,23.5C 301.913,26.352 301.08,28.5186 298.5,30C 299.059,30.7247 299.392,31.5581 299.5,32.5C 298.386,46.5032 297.219,60.5032 296,74.5C 295.252,76.751 293.752,78.0844 291.5,78.5 Z"/></g>
<g><path style="opacity:1" fill="#779a83" d="M 161.5,56.5 C 161.167,56.5 160.833,56.5 160.5,56.5C 159.791,55.596 158.791,55.2627 157.5,55.5C 157.5,61.5 157.5,67.5 157.5,73.5C 157.167,73.5 156.833,73.5 156.5,73.5C 156.169,63.4499 156.669,53.4499 158,43.5C 159.327,47.808 160.493,52.1414 161.5,56.5 Z"/></g>
<g><path style="opacity:1" fill="#6ba685" d="M 94.5,58.5 C 93.8826,58.3893 93.3826,58.056 93,57.5C 92.7216,58.4158 92.2216,59.0825 91.5,59.5C 91.5,51.1667 91.5,42.8333 91.5,34.5C 92.2216,34.0825 92.7216,33.4158 93,32.5C 93.1667,33.5 93.3333,34.5 93.5,35.5C 91.8546,43.3118 92.1879,50.9784 94.5,58.5 Z"/></g>
<g><path style="opacity:1" fill="#fcfcfc" d="M 184.5,48.5 C 186.167,48.5 187.833,48.5 189.5,48.5C 189.981,52.3491 188.314,54.3491 184.5,54.5C 183.167,52.5 183.167,50.5 184.5,48.5 Z"/></g>
<g><path style="opacity:1" fill="#679177" d="M 250.5,48.5 C 251.249,55.6945 252.082,63.0278 253,70.5C 254.453,75.7766 257.286,80.1099 261.5,83.5C 260.25,83.5774 259.417,84.244 259,85.5C 258.261,84.4258 257.261,83.7591 256,83.5C 253.185,84.7274 251.018,84.0607 249.5,81.5C 250.239,81.631 250.906,81.4643 251.5,81C 248.833,80 248.833,79 251.5,78C 250.167,76.3333 250.167,74.6667 251.5,73C 249.256,70.6236 248.923,67.9569 250.5,65C 248.955,63.1781 248.288,61.0114 248.5,58.5C 249.002,55.9914 249.002,53.6581 248.5,51.5C 249.612,50.7348 250.279,49.7348 250.5,48.5 Z"/></g>
<g><path style="opacity:1" fill="#5fa27f" d="M 307.5,49.5 C 307.904,54.1217 308.904,58.6217 310.5,63C 309.552,63.4828 308.552,63.6495 307.5,63.5C 307.5,58.8333 307.5,54.1667 307.5,49.5 Z"/></g>
<g><path style="opacity:1" fill="#50605e" d="M 153.5,36.5 C 152.833,36.8333 152.167,37.1667 151.5,37.5C 150.685,36.5707 149.852,35.5707 149,34.5C 149.05,51.0673 149.217,67.7339 149.5,84.5C 151.099,84.7678 152.432,84.4345 153.5,83.5C 154.458,83.0472 155.292,82.3805 156,81.5C 156.497,78.854 156.664,76.1873 156.5,73.5C 156.833,73.5 157.167,73.5 157.5,73.5C 158.5,73.5 159.5,73.5 160.5,73.5C 160.5,67.8333 160.5,62.1667 160.5,56.5C 160.833,56.5 161.167,56.5 161.5,56.5C 162.002,58.0847 163.002,58.5847 164.5,58C 166.127,55.2458 167.627,52.4125 169,49.5C 169.333,58.8333 169.667,68.1667 170,77.5C 174.283,80.3405 178.283,80.0071 182,76.5C 182.902,76.7432 183.735,77.0766 184.5,77.5C 184.666,81.5138 184.499,85.5138 184,89.5C 181.429,91.3527 178.762,93.0194 176,94.5C 175.51,95.7932 175.343,97.1266 175.5,98.5C 174.167,98.5 172.833,98.5 171.5,98.5C 171.5,100.833 171.5,103.167 171.5,105.5C 166.371,106.614 166.371,107.281 171.5,107.5C 171.644,113.66 170.81,119.66 169,125.5C 166.859,128.321 164.025,129.654 160.5,129.5C 160.336,126.813 160.503,124.146 161,121.5C 167.471,116.101 166.304,113.435 157.5,113.5C 157.666,107.491 157.499,101.491 157,95.5C 156.626,94.5838 156.126,93.7504 155.5,93C 151.706,92.3942 148.373,90.8942 145.5,88.5C 146.025,87.8076 146.692,87.3076 147.5,87C 146.204,83.0913 145.537,78.9246 145.5,74.5C 145.529,70.086 145.862,65.7527 146.5,61.5C 147.29,62.6085 147.79,63.9419 148,65.5C 148.167,64.1667 148.333,62.8333 148.5,61.5C 146.958,51.8768 146.458,42.2102 147,32.5C 148.789,30.771 150.956,30.1043 153.5,30.5C 153.5,32.5 153.5,34.5 153.5,36.5 Z"/></g>
<g><path style="opacity:1" fill="#759a84" d="M 151.5,37.5 C 150.517,52.7554 150.183,68.0888 150.5,83.5C 151.5,83.5 152.5,83.5 153.5,83.5C 152.432,84.4345 151.099,84.7678 149.5,84.5C 149.217,67.7339 149.05,51.0673 149,34.5C 149.852,35.5707 150.685,36.5707 151.5,37.5 Z"/></g>
<g><path style="opacity:1" fill="#808182" d="M 160.5,56.5 C 160.5,62.1667 160.5,67.8333 160.5,73.5C 159.5,73.5 158.5,73.5 157.5,73.5C 157.5,67.5 157.5,61.5 157.5,55.5C 158.791,55.2627 159.791,55.596 160.5,56.5 Z"/></g>
<g><path style="opacity:1" fill="#7bb090" d="M 89.5,43.5 C 90.1667,49.8333 90.8333,56.1667 91.5,62.5C 91.8168,66.7016 91.4834,70.7016 90.5,74.5C 90.815,70.6286 90.4816,66.9619 89.5,63.5C 89.5,56.8333 89.5,50.1667 89.5,43.5 Z"/></g>
<g><path style="opacity:1" fill="#808384" d="M 146.5,61.5 C 145.862,65.7527 145.529,70.086 145.5,74.5C 145.537,78.9246 146.204,83.0913 147.5,87C 146.692,87.3076 146.025,87.8076 145.5,88.5C 148.373,90.8942 151.706,92.3942 155.5,93C 156.126,93.7504 156.626,94.5838 157,95.5C 157.499,101.491 157.666,107.491 157.5,113.5C 154.086,116.327 152.253,119.994 152,124.5C 150.951,126.618 149.451,128.284 147.5,129.5C 147.759,125.763 146.093,123.43 142.5,122.5C 142.892,120.821 143.392,119.154 144,117.5C 145,116.167 146,116.167 147,117.5C 147.483,116.552 147.649,115.552 147.5,114.5C 143.468,114.186 140.135,115.519 137.5,118.5C 136.108,116.443 135.441,114.109 135.5,111.5C 138.316,95.3132 131.649,85.6465 115.5,82.5C 121.607,69.7349 131.607,61.7349 145.5,58.5C 145.263,59.791 145.596,60.791 146.5,61.5 Z"/></g>
<g><path style="opacity:1" fill="#848785" d="M 195.5,63.5 C 195.273,67.9534 193.44,71.6201 190,74.5C 189.501,70.1794 189.334,65.8461 189.5,61.5C 189.435,61.0618 189.601,60.7284 190,60.5C 192.058,61.2291 193.891,62.2291 195.5,63.5 Z"/></g>
<g><path style="opacity:1" fill="#838584" d="M 197.5,65.5 C 201.697,66.7735 205.03,69.2735 207.5,73C 208.5,73.3333 209.5,73.6667 210.5,74C 212.412,76.732 214.078,79.5653 215.5,82.5C 211.795,84.1826 207.795,85.016 203.5,85C 193.97,91.9317 190.97,101.098 194.5,112.5C 190.306,112.73 186.806,114.397 184,117.5C 182.912,122.131 182.079,126.798 181.5,131.5C 180.18,132.942 178.514,133.608 176.5,133.5C 176.521,124.818 176.854,116.152 177.5,107.5C 178.675,107.719 179.675,107.386 180.5,106.5C 178.981,104.444 178.147,102.11 178,99.5C 177.329,98.7476 176.496,98.4142 175.5,98.5C 175.343,97.1266 175.51,95.7932 176,94.5C 178.762,93.0194 181.429,91.3527 184,89.5C 184.499,85.5138 184.666,81.5138 184.5,77.5C 185.496,77.4142 186.329,77.7476 187,78.5C 192.764,76.2146 196.264,71.8813 197.5,65.5 Z"/></g>
<g><path style="opacity:1" fill="#7daa8b" d="M 59.5,20.5 C 58.2462,52.8299 58.2462,85.1632 59.5,117.5C 56.7678,88.0439 55.9345,58.3772 57,28.5C 57.2794,25.5432 58.1127,22.8766 59.5,20.5 Z"/></g>
<g><path style="opacity:1" fill="#c0d1c1" d="M 89.5,63.5 C 90.4816,66.9619 90.815,70.6286 90.5,74.5C 89.2896,90.7606 86.4563,106.761 82,122.5C 80.884,125.756 79.0507,128.422 76.5,130.5C 76.5,129.833 76.5,129.167 76.5,128.5C 77.935,126.402 79.1016,124.069 80,121.5C 84.574,102.389 87.7407,83.0561 89.5,63.5 Z"/></g>
<g><path style="opacity:1" fill="#4b5d5c" d="M 97.5,75.5 C 98.2096,77.7463 98.7096,80.0796 99,82.5C 99.3333,80.5 99.6667,78.5 100,76.5C 104.911,79.1919 110.077,81.1919 115.5,82.5C 131.649,85.6465 138.316,95.3132 135.5,111.5C 135.441,114.109 136.108,116.443 137.5,118.5C 136.434,120.701 135.767,123.035 135.5,125.5C 133.018,124.337 131.684,122.337 131.5,119.5C 131.5,119.167 131.5,118.833 131.5,118.5C 132.919,114.687 131.419,112.354 127,111.5C 125.855,112.636 124.688,113.636 123.5,114.5C 121.912,116.113 120.912,118.113 120.5,120.5C 118.167,120.5 115.833,120.5 113.5,120.5C 113.167,119.833 112.833,119.167 112.5,118.5C 118.035,112.953 119.868,106.287 118,98.5C 116.786,96.9512 115.286,95.7845 113.5,95C 109.93,94.7382 106.597,94.5715 103.5,94.5C 101.104,93.4631 98.7707,92.1297 96.5,90.5C 95.5224,90.9767 94.6891,91.6433 94,92.5C 94.6667,87.1667 94.6667,81.8333 94,76.5C 95.0113,75.6634 96.1779,75.33 97.5,75.5 Z"/></g>
<g><path style="opacity:1" fill="#527366" d="M 97.5,75.5 C 96.1779,75.33 95.0113,75.6634 94,76.5C 94.6667,81.8333 94.6667,87.1667 94,92.5C 94.6891,91.6433 95.5224,90.9767 96.5,90.5C 98.7707,92.1297 101.104,93.4631 103.5,94.5C 100.794,94.5751 98.1272,94.9084 95.5,95.5C 95.5,96.5 95.5,97.5 95.5,98.5C 94.8423,99.3984 94.1757,100.398 93.5,101.5C 93.1667,100.667 92.8333,99.8333 92.5,99C 91.2464,91.1704 91.2464,83.337 92.5,75.5C 94.3163,74.2651 95.983,74.2651 97.5,75.5 Z"/></g>
<g><path style="opacity:1" fill="#4d5d5d" d="M 228.5,106.5 C 227.709,108.691 227.709,110.691 228.5,112.5C 228.833,113.167 229.167,113.833 229.5,114.5C 228.833,114.833 228.167,115.167 227.5,115.5C 225.549,114.718 224.049,113.384 223,111.5C 222.722,112.416 222.222,113.082 221.5,113.5C 219.059,112.244 216.726,112.244 214.5,113.5C 213.5,113.5 212.5,113.5 211.5,113.5C 211.666,109.486 211.499,105.486 211,101.5C 210.501,105.821 210.334,110.154 210.5,114.5C 211.5,114.5 212.5,114.5 213.5,114.5C 213.631,115.376 213.298,116.043 212.5,116.5C 210.929,115.691 209.262,115.357 207.5,115.5C 207.5,117.167 207.5,118.833 207.5,120.5C 206.448,120.649 205.448,120.483 204.5,120C 203.901,118.378 203.234,116.878 202.5,115.5C 200.383,113.345 197.716,112.345 194.5,112.5C 190.97,101.098 193.97,91.9317 203.5,85C 207.795,85.016 211.795,84.1826 215.5,82.5C 217.288,83.6225 219.288,83.7891 221.5,83C 223.221,81.4728 225.221,80.4728 227.5,80C 229.607,78.7365 230.607,76.9032 230.5,74.5C 232.766,74.1412 234.599,74.8078 236,76.5C 237.523,84.1016 237.856,91.7682 237,99.5C 235.622,104.784 234.289,104.784 233,99.5C 231.165,101.727 231.665,103.56 234.5,105C 232.292,105.191 230.292,105.691 228.5,106.5 Z"/></g>
<g><path style="opacity:1" fill="#89a796" d="M 146.5,95.5 C 148.265,94.5386 150.265,94.2053 152.5,94.5C 152.665,98.1817 152.499,101.848 152,105.5C 151.502,102.183 151.335,98.8499 151.5,95.5C 149.833,95.5 148.167,95.5 146.5,95.5 Z"/></g>
<g><path style="opacity:1" fill="#5b866f" d="M 94.5,58.5 C 95.0965,59.9354 95.0965,61.602 94.5,63.5C 95.5,63.5 96.5,63.5 97.5,63.5C 98.0315,67.6935 98.0315,71.6935 97.5,75.5C 95.983,74.2651 94.3163,74.2651 92.5,75.5C 91.2464,83.337 91.2464,91.1704 92.5,99C 92.8333,99.8333 93.1667,100.667 93.5,101.5C 94.1757,100.398 94.8423,99.3984 95.5,98.5C 95.3006,112.52 95.6339,126.52 96.5,140.5C 97.8333,140.5 99.1667,140.5 100.5,140.5C 100.198,137.941 100.532,135.607 101.5,133.5C 101.5,136.167 101.5,138.833 101.5,141.5C 100.209,141.263 99.209,141.596 98.5,142.5C 93.8701,142.648 91.3701,140.314 91,135.5C 90.7978,137.256 90.2978,138.922 89.5,140.5C 85.98,139.694 83.3134,141.027 81.5,144.5C 79.5658,144.099 78.0658,143.099 77,141.5C 76.0226,144.259 76.856,146.259 79.5,147.5C 78.7366,148.719 77.7366,149.719 76.5,150.5C 77.624,151.914 78.624,153.414 79.5,155C 77.3467,156.891 76.68,159.057 77.5,161.5C 76.0493,162.906 74.7159,164.406 73.5,166C 74.428,166.388 75.0946,167.055 75.5,168C 75.0398,169.301 74.7065,170.634 74.5,172C 75.6575,177.11 76.3241,182.277 76.5,187.5C 75.5,187.5 74.5,187.5 73.5,187.5C 73.3345,191.514 73.5012,195.514 74,199.5C 75.4299,199.306 76.9299,199.306 78.5,199.5C 79.9501,200.85 80.6168,202.516 80.5,204.5C 79.5,204.5 78.5,204.5 77.5,204.5C 77.6653,208.182 77.4986,211.848 77,215.5C 76.9174,213.494 76.4174,212.494 75.5,212.5C 74.8333,210.5 74.1667,208.5 73.5,206.5C 72.5592,204.95 71.8925,203.284 71.5,201.5C 71.7572,185.151 71.4239,168.818 70.5,152.5C 71.4092,148.862 72.7426,145.362 74.5,142C 74.4753,140.124 73.8086,138.624 72.5,137.5C 72.9613,134.697 74.2947,132.363 76.5,130.5C 79.0507,128.422 80.884,125.756 82,122.5C 86.4563,106.761 89.2896,90.7606 90.5,74.5C 91.4834,70.7016 91.8168,66.7016 91.5,62.5C 91.5,61.5 91.5,60.5 91.5,59.5C 92.2216,59.0825 92.7216,58.4158 93,57.5C 93.3826,58.056 93.8826,58.3893 94.5,58.5 Z"/></g>
<g><path style="opacity:1" fill="#60a581" d="M 24.5,91.5 C 24.2322,93.099 24.5655,94.4324 25.5,95.5C 23.8915,99.6209 24.2248,103.454 26.5,107C 25.552,107.483 24.552,107.649 23.5,107.5C 22.5096,102.088 22.8429,96.7548 24.5,91.5 Z"/></g>
<g><path style="opacity:1" fill="#dfe6dd" d="M 51.5,53.5 C 51.4835,75.2688 52.9835,96.9355 56,118.5C 56.846,122.388 58.0126,126.055 59.5,129.5C 59.8676,133.044 58.8676,136.044 56.5,138.5C 54.5258,135.518 52.5258,132.518 50.5,129.5C 51.7199,127.716 51.7199,126.05 50.5,124.5C 49.4446,116.444 48.1113,108.444 46.5,100.5C 47.1667,100.833 47.8333,101.167 48.5,101.5C 50.5431,109.746 52.3764,118.079 54,126.5C 54.1667,125 54.3333,123.5 54.5,122C 51.6236,102.992 50.2903,83.8257 50.5,64.5C 50.185,60.6286 50.5184,56.9619 51.5,53.5 Z"/></g>
<g><path style="opacity:1" fill="#fdfdfd" d="M 91.5,34.5 C 91.5,42.8333 91.5,51.1667 91.5,59.5C 91.5,60.5 91.5,61.5 91.5,62.5C 90.8333,56.1667 90.1667,49.8333 89.5,43.5C 90.8892,34.4978 88.2226,26.9978 81.5,21C 80.6683,20.3123 80.0016,20.479 79.5,21.5C 81.8606,24.8878 83.6939,28.5544 85,32.5C 86.2262,64.8944 83.3929,96.8944 76.5,128.5C 76.5,129.167 76.5,129.833 76.5,130.5C 74.2947,132.363 72.9613,134.697 72.5,137.5C 71.8741,143.275 70.8741,148.942 69.5,154.5C 68.0092,151.465 65.8425,148.799 63,146.5C 61.5014,158.128 61.1681,169.794 62,181.5C 62.4966,179.19 62.6633,176.857 62.5,174.5C 64.4672,174.261 66.3005,174.594 68,175.5C 68.3333,182.5 68.6667,189.5 69,196.5C 69.1981,198.382 69.6981,200.048 70.5,201.5C 70.8333,201.5 71.1667,201.5 71.5,201.5C 71.8925,203.284 72.5592,204.95 73.5,206.5C 73.9361,224.351 74.9361,242.018 76.5,259.5C 76.5,264.833 76.5,270.167 76.5,275.5C 75.6906,276.469 74.6906,277.302 73.5,278C 67.8913,279.384 62.2247,279.717 56.5,279C 54.6763,278.34 53.343,277.173 52.5,275.5C 52.2446,252.767 53.2446,230.1 55.5,207.5C 56.475,204.933 57.1417,202.267 57.5,199.5C 57.5,199.167 57.5,198.833 57.5,198.5C 58.3171,196.031 58.8171,193.365 59,190.5C 59.4999,175.837 59.6666,161.17 59.5,146.5C 58.5,146.5 57.5,146.5 56.5,146.5C 55.2329,143.939 55.2329,141.272 56.5,138.5C 58.8676,136.044 59.8676,133.044 59.5,129.5C 60.8333,125.5 60.8333,121.5 59.5,117.5C 58.2462,85.1632 58.2462,52.8299 59.5,20.5C 59.6107,19.8826 59.944,19.3826 60.5,19C 59.0563,18.2195 57.723,18.3861 56.5,19.5C 55.0584,22.0496 53.8917,24.7163 53,27.5C 51.6614,36.1074 51.1614,44.7741 51.5,53.5C 50.5184,56.9619 50.185,60.6286 50.5,64.5C 49.3412,54.008 49.1745,43.3414 50,32.5C 50.7175,28.3451 52.2175,24.5118 54.5,21C 54,20.5 53.5,20 53,19.5C 48.7391,24.0217 46.0725,29.3551 45,35.5C 43.8434,57.6375 45.0101,79.6375 48.5,101.5C 47.8333,101.167 47.1667,100.833 46.5,100.5C 43.8309,77.907 42.9975,55.2403 44,32.5C 45.0987,29.1363 46.5987,25.9696 48.5,23C 48,22.5 47.5,22 47,21.5C 44.4816,24.5707 41.9816,27.5707 39.5,30.5C 42.2578,23.241 47.2578,18.0743 54.5,15C 73.086,9.95697 85.4193,16.457 91.5,34.5 Z"/></g>
<g><path style="opacity:1" fill="#7cae8e" d="M 60.5,87.5 C 61.3535,92.495 62.0201,97.6617 62.5,103C 62.4857,104.385 62.1524,105.551 61.5,106.5C 60.6803,100.203 60.347,93.8692 60.5,87.5 Z"/></g>
<g><path style="opacity:1" fill="#6b8f76" d="M 73.5,127.5 C 74.1667,122.167 74.8333,116.833 75.5,111.5C 78.2521,84.5676 79.0854,57.5676 78,30.5C 77.0801,26.7367 75.5801,23.2367 73.5,20C 74.7487,18.1759 75.9153,18.3426 77,20.5C 82.4836,29.5027 84.6503,39.336 83.5,50C 83.285,74.0822 80.785,97.9155 76,121.5C 75.7599,123.852 74.9265,125.852 73.5,127.5 Z"/></g>
<g><path style="opacity:1" fill="#628870" d="M 73.5,107.5 C 72.1431,113.31 71.1431,119.31 70.5,125.5C 70.5,125.833 70.5,126.167 70.5,126.5C 69.5098,120.355 69.1765,114.022 69.5,107.5C 69.7084,77.8059 69.8751,48.1393 70,18.5C 72.7765,21.718 74.7765,25.3847 76,29.5C 77.1653,55.5789 76.332,81.5789 73.5,107.5 Z"/></g>
<g><path style="opacity:1" fill="#658970" d="M 66.5,125.5 C 65.8485,126.091 65.1818,126.757 64.5,127.5C 63.6694,121.193 63.1694,114.859 63,108.5C 62.7216,109.416 62.2216,110.082 61.5,110.5C 61.5,109.167 61.5,107.833 61.5,106.5C 62.1524,105.551 62.4857,104.385 62.5,103C 62.0201,97.6617 61.3535,92.495 60.5,87.5C 59.222,66.8321 59.3887,46.1655 61,25.5C 61.2532,22.2104 62.2532,19.2104 64,16.5C 65.7506,18.4899 66.7506,20.8232 67,23.5C 68.5597,57.4927 68.393,91.4927 66.5,125.5 Z"/></g>
<g><path style="opacity:1" fill="#fdfdfd" d="M 228.5,106.5 C 230.167,106.5 231.833,106.5 233.5,106.5C 234.113,110.512 232.446,112.512 228.5,112.5C 227.709,110.691 227.709,108.691 228.5,106.5 Z"/></g>
<g><path style="opacity:1" fill="#60a582" d="M 27.5,107.5 C 27.8787,114.099 28.8787,120.599 30.5,127C 29.552,127.483 28.552,127.649 27.5,127.5C 27.5,120.833 27.5,114.167 27.5,107.5 Z"/></g>
<g><path style="opacity:1" fill="#558873" d="M 214.5,113.5 C 214.5,114.167 214.167,114.5 213.5,114.5C 212.5,114.5 211.5,114.5 210.5,114.5C 210.334,110.154 210.501,105.821 211,101.5C 211.499,105.486 211.666,109.486 211.5,113.5C 212.5,113.5 213.5,113.5 214.5,113.5 Z"/></g>
<g><path style="opacity:1" fill="#fdfdfd" d="M 194.5,112.5 C 197.716,112.345 200.383,113.345 202.5,115.5C 202.334,120.511 202.501,125.511 203,130.5C 206.877,128.243 208.377,124.91 207.5,120.5C 207.5,118.833 207.5,117.167 207.5,115.5C 209.262,115.357 210.929,115.691 212.5,116.5C 213.298,116.043 213.631,115.376 213.5,114.5C 214.167,114.5 214.5,114.167 214.5,113.5C 216.726,112.244 219.059,112.244 221.5,113.5C 222.084,119.482 222.75,125.482 223.5,131.5C 224.333,130.5 225.167,129.5 226,128.5C 226.369,124.137 226.869,119.804 227.5,115.5C 228.167,115.167 228.833,114.833 229.5,114.5C 231.167,114.5 232.833,114.5 234.5,114.5C 234.334,120.176 234.501,125.843 235,131.5C 236.574,130.016 237.907,128.349 239,126.5C 239.784,121.663 241.617,117.33 244.5,113.5C 252.32,111.307 256.653,114.307 257.5,122.5C 258.916,120.861 260.583,120.027 262.5,120C 261.619,120.708 260.953,121.542 260.5,122.5C 257.166,124.78 254.5,127.78 252.5,131.5C 249.554,132.655 246.554,132.821 243.5,132C 242.624,130.414 241.624,128.914 240.5,127.5C 237.19,134.857 232.357,136.19 226,131.5C 223.695,133.93 220.862,134.93 217.5,134.5C 217.037,131.518 216.704,128.518 216.5,125.5C 216.816,122.022 216.316,118.688 215,115.5C 211.833,120.5 208.667,125.5 205.5,130.5C 201.31,132.238 197.643,131.571 194.5,128.5C 194.565,128.062 194.399,127.728 194,127.5C 191.58,130.585 188.58,131.251 185,129.5C 183.697,129.978 182.531,130.645 181.5,131.5C 182.079,126.798 182.912,122.131 184,117.5C 186.806,114.397 190.306,112.73 194.5,112.5 Z"/></g>
<g><path style="opacity:1" fill="#a9cbaf" d="M 69.5,107.5 C 69.1765,114.022 69.5098,120.355 70.5,126.5C 70.1165,130.942 69.1165,131.276 67.5,127.5C 68.1325,120.703 68.7991,114.037 69.5,107.5 Z"/></g>
<g><path style="opacity:1" fill="#c1d8c7" d="M 73.5,107.5 C 73.3379,109.527 73.5045,111.527 74,113.5C 74.2784,112.584 74.7784,111.918 75.5,111.5C 74.8333,116.833 74.1667,122.167 73.5,127.5C 72.6981,126.048 72.1981,124.382 72,122.5C 71.7679,123.737 71.2679,124.737 70.5,125.5C 71.1431,119.31 72.1431,113.31 73.5,107.5 Z"/></g>
<g><path style="opacity:1" fill="#f9faf9" d="M 103.5,94.5 C 106.597,94.5715 109.93,94.7382 113.5,95C 115.286,95.7845 116.786,96.9512 118,98.5C 119.868,106.287 118.035,112.953 112.5,118.5C 110.044,119.688 107.711,121.021 105.5,122.5C 108.083,125.997 110.416,129.664 112.5,133.5C 115.246,134.933 117.246,134.267 118.5,131.5C 119.167,127.833 119.833,124.167 120.5,120.5C 120.912,118.113 121.912,116.113 123.5,114.5C 125.527,114.338 127.527,114.505 129.5,115C 130.973,115.71 131.64,116.876 131.5,118.5C 131.5,118.833 131.5,119.167 131.5,119.5C 127.272,121.517 125.772,124.851 127,129.5C 130.854,130.491 133.687,129.158 135.5,125.5C 135.767,123.035 136.434,120.701 137.5,118.5C 140.135,115.519 143.468,114.186 147.5,114.5C 147.649,115.552 147.483,116.552 147,117.5C 146,116.167 145,116.167 144,117.5C 143.392,119.154 142.892,120.821 142.5,122.5C 142.335,125.518 142.502,128.518 143,131.5C 145.108,132.612 146.608,131.946 147.5,129.5C 149.451,128.284 150.951,126.618 152,124.5C 152.253,119.994 154.086,116.327 157.5,113.5C 166.304,113.435 167.471,116.101 161,121.5C 160.503,124.146 160.336,126.813 160.5,129.5C 164.025,129.654 166.859,128.321 169,125.5C 170.81,119.66 171.644,113.66 171.5,107.5C 166.371,107.281 166.371,106.614 171.5,105.5C 172.461,103.735 172.795,101.735 172.5,99.5C 173.791,99.7373 174.791,99.404 175.5,98.5C 176.496,98.4142 177.329,98.7476 178,99.5C 178.147,102.11 178.981,104.444 180.5,106.5C 179.675,107.386 178.675,107.719 177.5,107.5C 176.854,116.152 176.521,124.818 176.5,133.5C 178.514,133.608 180.18,132.942 181.5,131.5C 180.886,134.766 178.886,136.099 175.5,135.5C 173.9,135.449 172.4,135.116 171,134.5C 170.178,132.212 169.511,129.878 169,127.5C 167.951,129.384 166.451,130.718 164.5,131.5C 161.813,131.664 159.146,131.497 156.5,131C 154.963,129.89 154.297,128.39 154.5,126.5C 151.745,126.963 150.078,128.63 149.5,131.5C 147.711,132.877 145.711,133.877 143.5,134.5C 142.448,134.649 141.448,134.483 140.5,134C 138.707,132.22 137.04,130.387 135.5,128.5C 131.477,131.673 126.977,132.339 122,130.5C 120.97,130.836 120.47,131.503 120.5,132.5C 119.163,133.315 118.163,134.482 117.5,136C 115.553,136.991 113.553,137.325 111.5,137C 108.078,133.997 105.245,130.497 103,126.5C 101.798,128.677 101.298,131.011 101.5,133.5C 100.532,135.607 100.198,137.941 100.5,140.5C 99.1667,140.5 97.8333,140.5 96.5,140.5C 95.6339,126.52 95.3006,112.52 95.5,98.5C 95.5,97.5 95.5,96.5 95.5,95.5C 98.1272,94.9084 100.794,94.5751 103.5,94.5 Z"/></g>
<g><path style="opacity:1" fill="#91a798" d="M 131.5,118.5 C 131.64,116.876 130.973,115.71 129.5,115C 127.527,114.505 125.527,114.338 123.5,114.5C 124.688,113.636 125.855,112.636 127,111.5C 131.419,112.354 132.919,114.687 131.5,118.5 Z"/></g>
<g><path style="opacity:1" fill="#97b09d" d="M 175.5,98.5 C 174.791,99.404 173.791,99.7373 172.5,99.5C 172.795,101.735 172.461,103.735 171.5,105.5C 171.5,103.167 171.5,100.833 171.5,98.5C 172.833,98.5 174.167,98.5 175.5,98.5 Z"/></g>
<g><path style="opacity:1" fill="#54605c" d="M 106.5,96.5 C 108.167,96.5 109.833,96.5 111.5,96.5C 111.877,103.257 111.377,109.924 110,116.5C 108.246,118.25 106.079,118.917 103.5,118.5C 103.334,112.824 103.501,107.157 104,101.5C 104.366,99.5483 105.199,97.8816 106.5,96.5 Z"/></g>
<g><path style="opacity:1" fill="#708874" d="M 251.5,115.5 C 254.428,117.124 255.095,119.457 253.5,122.5C 251.534,120.302 250.867,117.969 251.5,115.5 Z"/></g>
<g><path style="opacity:1" fill="#556861" d="M 161.5,116.5 C 163.337,116.639 163.67,117.306 162.5,118.5C 161.702,118.043 161.369,117.376 161.5,116.5 Z"/></g>
<g><path style="opacity:1" fill="#5e816c" d="M 227.5,115.5 C 226.869,119.804 226.369,124.137 226,128.5C 225.167,129.5 224.333,130.5 223.5,131.5C 222.75,125.482 222.084,119.482 221.5,113.5C 222.222,113.082 222.722,112.416 223,111.5C 224.049,113.384 225.549,114.718 227.5,115.5 Z"/></g>
<g><path style="opacity:1" fill="#848b85" d="M 194.5,120.5 C 194.649,119.448 194.483,118.448 194,117.5C 192.871,119.141 191.371,120.141 189.5,120.5C 190.121,117.879 191.788,116.212 194.5,115.5C 195.788,117.299 195.788,118.965 194.5,120.5 Z"/></g>
<g><path style="opacity:1" fill="#5d5d5f" d="M 194.5,120.5 C 191.668,129.458 190.001,129.458 189.5,120.5C 191.371,120.141 192.871,119.141 194,117.5C 194.483,118.448 194.649,119.448 194.5,120.5 Z"/></g>
<g><path style="opacity:1" fill="#638b70" d="M 247.5,117.5 C 249.456,120.539 251.79,123.372 254.5,126C 253.323,129.349 250.99,130.849 247.5,130.5C 246.246,126.152 246.246,121.818 247.5,117.5 Z"/></g>
<g><path style="opacity:1" fill="#678670" d="M 112.5,118.5 C 112.833,119.167 113.167,119.833 113.5,120.5C 113.33,125.152 114.997,128.819 118.5,131.5C 117.246,134.267 115.246,134.933 112.5,133.5C 110.416,129.664 108.083,125.997 105.5,122.5C 107.711,121.021 110.044,119.688 112.5,118.5 Z"/></g>
<g><path style="opacity:1" fill="#82817f" d="M 113.5,120.5 C 115.833,120.5 118.167,120.5 120.5,120.5C 119.833,124.167 119.167,127.833 118.5,131.5C 114.997,128.819 113.33,125.152 113.5,120.5 Z"/></g>
<g><path style="opacity:1" fill="#828584" d="M 202.5,115.5 C 203.234,116.878 203.901,118.378 204.5,120C 205.448,120.483 206.448,120.649 207.5,120.5C 208.377,124.91 206.877,128.243 203,130.5C 202.501,125.511 202.334,120.511 202.5,115.5 Z"/></g>
<g><path style="opacity:1" fill="#57826b" d="M 260.5,122.5 C 262.605,122.139 264.438,123.139 266,125.5C 266.843,136.945 266.343,148.279 264.5,159.5C 263.596,160.209 263.263,161.209 263.5,162.5C 260.833,162.5 258.167,162.5 255.5,162.5C 255.177,169.022 255.51,175.355 256.5,181.5C 257.559,186.448 257.726,191.448 257,196.5C 254.639,199.442 251.806,200.109 248.5,198.5C 248.5,200.167 248.5,201.833 248.5,203.5C 250.92,203.708 253.253,203.374 255.5,202.5C 257.217,203.668 257.884,205.335 257.5,207.5C 250.329,207.766 243.496,206.432 237,203.5C 236.367,196.257 236.867,189.09 238.5,182C 238.333,181.5 238.167,181 238,180.5C 237.081,183.402 236.248,183.735 235.5,181.5C 235.543,177.107 235.043,176.774 234,180.5C 232.837,187.807 232.004,195.141 231.5,202.5C 226.056,203.108 221.056,202.442 216.5,200.5C 216.5,199.833 216.167,199.5 215.5,199.5C 215.5,196.5 215.5,193.5 215.5,190.5C 209.5,190.5 203.5,190.5 197.5,190.5C 196.997,185.5 196.664,185.833 196.5,191.5C 196.5,192.833 196.5,194.167 196.5,195.5C 193.092,196.172 190.425,195.172 188.5,192.5C 188.167,192.833 187.833,193.167 187.5,193.5C 188.193,194.518 188.859,195.518 189.5,196.5C 190.509,197.939 190.176,199.272 188.5,200.5C 180.081,195.11 175.748,197.443 175.5,207.5C 174.325,207.719 173.325,207.386 172.5,206.5C 174.203,203.45 174.37,200.45 173,197.5C 169.491,197.775 165.991,197.275 162.5,196C 163.056,195.617 163.389,195.117 163.5,194.5C 165.929,194.415 167.929,193.415 169.5,191.5C 167.699,188.465 167.032,185.131 167.5,181.5C 168.93,181.579 170.264,181.246 171.5,180.5C 172.141,179.007 173.141,178.007 174.5,177.5C 172.802,181.418 171.636,185.418 171,189.5C 172.333,187.5 173.667,185.5 175,183.5C 177.643,189.753 181.81,191.253 187.5,188C 185.598,187.801 184.098,186.967 183,185.5C 182.502,182.183 182.335,178.85 182.5,175.5C 183.791,175.737 184.791,175.404 185.5,174.5C 187.852,173.048 188.185,171.048 186.5,168.5C 184.604,167.534 182.604,167.201 180.5,167.5C 179.15,166.176 179.317,165.176 181,164.5C 184.489,164.521 187.989,164.854 191.5,165.5C 192.461,163.735 192.795,161.735 192.5,159.5C 197.833,159.5 203.167,159.5 208.5,159.5C 208.334,154.821 208.501,150.155 209,145.5C 209.562,152.06 210.395,152.06 211.5,145.5C 211.48,144.274 211.147,143.274 210.5,142.5C 210.423,141.25 209.756,140.417 208.5,140C 209.406,138.301 209.739,136.467 209.5,134.5C 209.492,128.792 209.992,128.459 211,133.5C 212.389,130.433 214.222,127.767 216.5,125.5C 216.704,128.518 217.037,131.518 217.5,134.5C 220.862,134.93 223.695,133.93 226,131.5C 232.357,136.19 237.19,134.857 240.5,127.5C 241.624,128.914 242.624,130.414 243.5,132C 246.554,132.821 249.554,132.655 252.5,131.5C 254.5,127.78 257.166,124.78 260.5,122.5 Z"/></g>
<g><path style="opacity:1" fill="#81a68a" d="M 66.5,125.5 C 66.4613,128.321 65.7946,130.988 64.5,133.5C 64.1667,133 63.8333,132.5 63.5,132C 61.864,124.933 61.1974,117.766 61.5,110.5C 62.2216,110.082 62.7216,109.416 63,108.5C 63.1694,114.859 63.6694,121.193 64.5,127.5C 65.1818,126.757 65.8485,126.091 66.5,125.5 Z"/></g>
<g><path style="opacity:1" fill="#536161" d="M 142.5,122.5 C 146.093,123.43 147.759,125.763 147.5,129.5C 146.608,131.946 145.108,132.612 143,131.5C 142.502,128.518 142.335,125.518 142.5,122.5 Z"/></g>
<g><path style="opacity:1" fill="#828787" d="M 131.5,119.5 C 131.684,122.337 133.018,124.337 135.5,125.5C 133.687,129.158 130.854,130.491 127,129.5C 125.772,124.851 127.272,121.517 131.5,119.5 Z"/></g>
<g><path style="opacity:1" fill="#818483" d="M 143.5,134.5 C 143.196,135.15 142.863,135.817 142.5,136.5C 146.523,141.544 149.189,147.211 150.5,153.5C 143.839,151.631 137.505,149.131 131.5,146C 128.963,143.128 126.13,140.628 123,138.5C 121.441,136.783 120.608,134.783 120.5,132.5C 120.47,131.503 120.97,130.836 122,130.5C 126.977,132.339 131.477,131.673 135.5,128.5C 137.04,130.387 138.707,132.22 140.5,134C 141.448,134.483 142.448,134.649 143.5,134.5 Z"/></g>
<g><path style="opacity:1" fill="#4d5e5d" d="M 181.5,131.5 C 182.531,130.645 183.697,129.978 185,129.5C 188.58,131.251 191.58,130.585 194,127.5C 194.399,127.728 194.565,128.062 194.5,128.5C 194.245,131.676 192.578,133.676 189.5,134.5C 185.904,140.27 182.904,146.27 180.5,152.5C 179.286,153.626 178.286,154.959 177.5,156.5C 176.435,162.192 175.269,167.859 174,173.5C 172.901,176.733 170.735,178.733 167.5,179.5C 167.833,171.5 168.167,163.5 168.5,155.5C 169.461,153.735 169.795,151.735 169.5,149.5C 167.585,149.216 165.919,149.549 164.5,150.5C 163.351,150.791 162.684,151.624 162.5,153C 161.505,158.131 160.838,163.298 160.5,168.5C 159.5,168.5 158.5,168.5 157.5,168.5C 155.351,163.374 153.018,158.374 150.5,153.5C 149.189,147.211 146.523,141.544 142.5,136.5C 142.863,135.817 143.196,135.15 143.5,134.5C 145.711,133.877 147.711,132.877 149.5,131.5C 151.272,133.296 153.272,134.963 155.5,136.5C 156.281,135.271 156.781,133.938 157,132.5C 159.726,133.691 162.226,133.358 164.5,131.5C 166.451,130.718 167.951,129.384 169,127.5C 169.511,129.878 170.178,132.212 171,134.5C 172.4,135.116 173.9,135.449 175.5,135.5C 178.886,136.099 180.886,134.766 181.5,131.5 Z"/></g>
<g><path style="opacity:1" fill="#59816c" d="M 120.5,132.5 C 120.608,134.783 121.441,136.783 123,138.5C 126.13,140.628 128.963,143.128 131.5,146C 137.505,149.131 143.839,151.631 150.5,153.5C 153.018,158.374 155.351,163.374 157.5,168.5C 153.808,167.971 150.642,168.971 148,171.5C 145.901,176.907 146.067,182.24 148.5,187.5C 153.23,189.385 156.73,188.051 159,183.5C 159.849,186.521 160.683,189.521 161.5,192.5C 159.745,193.792 157.745,194.792 155.5,195.5C 153.305,198.045 152.139,200.712 152,203.5C 149.978,202.009 148.312,202.342 147,204.5C 145.475,207.72 144.808,211.053 145,214.5C 146.154,216.957 147.488,216.957 149,214.5C 149.5,215 150,215.5 150.5,216C 149.676,218.953 148.343,221.453 146.5,223.5C 143.994,217.495 139.661,215.661 133.5,218C 131.951,219.214 130.785,220.714 130,222.5C 130.607,230.784 127.773,237.617 121.5,243C 117.849,244.123 115.349,242.956 114,239.5C 113.245,229.799 113.412,220.132 114.5,210.5C 121.718,210.741 126.052,207.408 127.5,200.5C 127.61,198.626 126.944,197.126 125.5,196C 120.243,194.574 115.743,195.741 112,199.5C 110.272,204.836 108.105,209.836 105.5,214.5C 105.649,213.448 105.483,212.448 105,211.5C 103.452,216.239 102.285,221.073 101.5,226C 103.246,230.71 103.746,235.543 103,240.5C 102.29,239.027 101.124,238.36 99.5,238.5C 98.1996,225.429 96.5329,212.096 94.5,198.5C 97.6037,199.864 100.604,199.698 103.5,198C 103.043,197.586 102.709,197.086 102.5,196.5C 103.247,196.264 104.08,195.93 105,195.5C 105.494,193.866 105.66,192.199 105.5,190.5C 108.167,190.5 110.833,190.5 113.5,190.5C 113.295,184.122 113.628,177.789 114.5,171.5C 113.5,171.5 112.5,171.5 111.5,171.5C 110.844,164.745 109.678,158.078 108,151.5C 106.989,152.337 105.822,152.67 104.5,152.5C 104.029,148.221 102.029,144.888 98.5,142.5C 99.209,141.596 100.209,141.263 101.5,141.5C 101.5,138.833 101.5,136.167 101.5,133.5C 101.298,131.011 101.798,128.677 103,126.5C 105.245,130.497 108.078,133.997 111.5,137C 113.553,137.325 115.553,136.991 117.5,136C 118.163,134.482 119.163,133.315 120.5,132.5 Z"/></g>
<g><path style="opacity:1" fill="#818583" d="M 216.5,125.5 C 214.222,127.767 212.389,130.433 211,133.5C 209.992,128.459 209.492,128.792 209.5,134.5C 204.47,139.541 199.137,144.374 193.5,149C 189.304,150.77 184.971,151.937 180.5,152.5C 182.904,146.27 185.904,140.27 189.5,134.5C 192.578,133.676 194.245,131.676 194.5,128.5C 197.643,131.571 201.31,132.238 205.5,130.5C 208.667,125.5 211.833,120.5 215,115.5C 216.316,118.688 216.816,122.022 216.5,125.5 Z"/></g>
<g><path style="opacity:1" fill="#818b87" d="M 164.5,131.5 C 162.226,133.358 159.726,133.691 157,132.5C 156.781,133.938 156.281,135.271 155.5,136.5C 153.272,134.963 151.272,133.296 149.5,131.5C 150.078,128.63 151.745,126.963 154.5,126.5C 154.297,128.39 154.963,129.89 156.5,131C 159.146,131.497 161.813,131.664 164.5,131.5 Z"/></g>
<g><path style="opacity:1" fill="#587f6c" d="M 98.5,142.5 C 102.029,144.888 104.029,148.221 104.5,152.5C 105.822,152.67 106.989,152.337 108,151.5C 109.678,158.078 110.844,164.745 111.5,171.5C 112.5,171.5 113.5,171.5 114.5,171.5C 113.628,177.789 113.295,184.122 113.5,190.5C 110.833,190.5 108.167,190.5 105.5,190.5C 105.66,192.199 105.494,193.866 105,195.5C 104.08,195.93 103.247,196.264 102.5,196.5C 102.709,197.086 103.043,197.586 103.5,198C 100.604,199.698 97.6037,199.864 94.5,198.5C 96.5329,212.096 98.1996,225.429 99.5,238.5C 101.124,238.36 102.29,239.027 103,240.5C 103.746,235.543 103.246,230.71 101.5,226C 102.285,221.073 103.452,216.239 105,211.5C 105.483,212.448 105.649,213.448 105.5,214.5C 105.334,220.842 105.5,227.175 106,233.5C 106.889,238.056 109.056,241.889 112.5,245C 115.882,245.824 119.216,245.657 122.5,244.5C 125.075,241.681 127.408,238.681 129.5,235.5C 131.186,236.857 132.852,238.19 134.5,239.5C 135.531,240.249 136.698,240.915 138,241.5C 138.498,244.817 138.665,248.15 138.5,251.5C 137.193,253.223 137.193,255.057 138.5,257C 137.296,258.353 136.629,260.019 136.5,262C 137.074,272.201 137.741,282.367 138.5,292.5C 136.995,293.842 136.328,295.508 136.5,297.5C 98.1667,297.5 59.8333,297.5 21.5,297.5C 21.5674,296.041 21.2341,294.708 20.5,293.5C 20.9867,289.133 21.6533,284.799 22.5,280.5C 23.2216,280.918 23.7216,281.584 24,282.5C 25.9352,272.626 27.1018,262.626 27.5,252.5C 29.3228,257.926 30.6562,263.593 31.5,269.5C 33.0519,257.915 35.0519,246.415 37.5,235C 35.3077,232.394 34.9744,229.561 36.5,226.5C 37.2223,222.88 38.2223,219.213 39.5,215.5C 39.1204,213.526 38.7871,211.526 38.5,209.5C 35.2259,214.834 34.2259,214.334 35.5,208C 35.3699,206.941 34.8699,206.108 34,205.5C 31.9281,208.971 30.4281,212.638 29.5,216.5C 28.5206,213.375 28.1872,210.042 28.5,206.5C 29.2341,205.292 29.5674,203.959 29.5,202.5C 30.9778,202.762 32.3112,202.429 33.5,201.5C 34.4001,197.562 36.9001,195.229 41,194.5C 41.8333,194.833 42.6667,195.167 43.5,195.5C 42.0895,201.036 43.2562,201.703 47,197.5C 49.4983,198.121 51.8316,197.455 54,195.5C 54.49,196.793 54.6567,198.127 54.5,199.5C 55.5,199.5 56.5,199.5 57.5,199.5C 57.1417,202.267 56.475,204.933 55.5,207.5C 54.5,207.5 53.5,207.5 52.5,207.5C 50.9884,217.105 49.9884,226.772 49.5,236.5C 50.8324,249.612 51.8324,262.612 52.5,275.5C 53.343,277.173 54.6763,278.34 56.5,279C 62.2247,279.717 67.8913,279.384 73.5,278C 74.6906,277.302 75.6906,276.469 76.5,275.5C 79.6779,276.678 81.3446,275.345 81.5,271.5C 80.1961,266.338 80.1961,261.171 81.5,256C 81.1416,253.968 80.3083,252.134 79,250.5C 78.6667,240.5 78.3333,230.5 78,220.5C 77.8302,230.675 77.3302,240.675 76.5,250.5C 76.4862,237.823 76.1529,225.156 75.5,212.5C 76.4174,212.494 76.9174,213.494 77,215.5C 77.4986,211.848 77.6653,208.182 77.5,204.5C 78.5,204.5 79.5,204.5 80.5,204.5C 80.6168,202.516 79.9501,200.85 78.5,199.5C 76.9299,199.306 75.4299,199.306 74,199.5C 73.5012,195.514 73.3345,191.514 73.5,187.5C 74.5,187.5 75.5,187.5 76.5,187.5C 76.3241,182.277 75.6575,177.11 74.5,172C 74.7065,170.634 75.0398,169.301 75.5,168C 75.0946,167.055 74.428,166.388 73.5,166C 74.7159,164.406 76.0493,162.906 77.5,161.5C 76.68,159.057 77.3467,156.891 79.5,155C 78.624,153.414 77.624,151.914 76.5,150.5C 77.7366,149.719 78.7366,148.719 79.5,147.5C 76.856,146.259 76.0226,144.259 77,141.5C 78.0658,143.099 79.5658,144.099 81.5,144.5C 83.3134,141.027 85.98,139.694 89.5,140.5C 90.2978,138.922 90.7978,137.256 91,135.5C 91.3701,140.314 93.8701,142.648 98.5,142.5 Z"/></g>
<g><path style="opacity:1" fill="#597e6b" d="M 209.5,134.5 C 209.739,136.467 209.406,138.301 208.5,140C 209.756,140.417 210.423,141.25 210.5,142.5C 210.631,143.239 210.464,143.906 210,144.5C 209.333,143.167 208.667,143.167 208,144.5C 207.501,149.155 207.334,153.821 207.5,158.5C 202.167,158.5 196.833,158.5 191.5,158.5C 191.5,160.833 191.5,163.167 191.5,165.5C 187.989,164.854 184.489,164.521 181,164.5C 179.317,165.176 179.15,166.176 180.5,167.5C 176.977,169.873 174.977,173.207 174.5,177.5C 173.141,178.007 172.141,179.007 171.5,180.5C 170.264,181.246 168.93,181.579 167.5,181.5C 167.5,180.833 167.5,180.167 167.5,179.5C 170.735,178.733 172.901,176.733 174,173.5C 175.269,167.859 176.435,162.192 177.5,156.5C 178.286,154.959 179.286,153.626 180.5,152.5C 184.971,151.937 189.304,150.77 193.5,149C 199.137,144.374 204.47,139.541 209.5,134.5 Z"/></g>
<g><path style="opacity:1" fill="#f7f3f0" d="M 69.5,154.5 C 69.5447,170.174 69.878,185.841 70.5,201.5C 69.6981,200.048 69.1981,198.382 69,196.5C 68.6667,189.5 68.3333,182.5 68,175.5C 66.3005,174.594 64.4672,174.261 62.5,174.5C 62.6633,176.857 62.4966,179.19 62,181.5C 61.1681,169.794 61.5014,158.128 63,146.5C 65.8425,148.799 68.0092,151.465 69.5,154.5 Z"/></g>
<g><path style="opacity:1" fill="#98baa0" d="M 56.5,146.5 C 57.5,146.5 58.5,146.5 59.5,146.5C 59.6666,161.17 59.4999,175.837 59,190.5C 58.8171,193.365 58.3171,196.031 57.5,198.5C 57.6108,181.155 57.2775,163.822 56.5,146.5 Z"/></g>
<g><path style="opacity:1" fill="#fefefe" d="M 164.5,150.5 C 165.833,150.5 167.167,150.5 168.5,150.5C 168.5,152.167 168.5,153.833 168.5,155.5C 168.167,163.5 167.833,171.5 167.5,179.5C 167.5,180.167 167.5,180.833 167.5,181.5C 167.032,185.131 167.699,188.465 169.5,191.5C 167.929,193.415 165.929,194.415 163.5,194.5C 163.167,193.5 162.5,192.833 161.5,192.5C 160.683,189.521 159.849,186.521 159,183.5C 156.73,188.051 153.23,189.385 148.5,187.5C 146.067,182.24 145.901,176.907 148,171.5C 150.642,168.971 153.808,167.971 157.5,168.5C 158.5,168.5 159.5,168.5 160.5,168.5C 160.838,163.298 161.505,158.131 162.5,153C 162.684,151.624 163.351,150.791 164.5,150.5 Z"/></g>
<g><path style="opacity:1" fill="#819f8c" d="M 164.5,150.5 C 165.919,149.549 167.585,149.216 169.5,149.5C 169.795,151.735 169.461,153.735 168.5,155.5C 168.5,153.833 168.5,152.167 168.5,150.5C 167.167,150.5 165.833,150.5 164.5,150.5 Z"/></g>
<g><path style="opacity:1" fill="#8db695" d="M 72.5,137.5 C 73.8086,138.624 74.4753,140.124 74.5,142C 72.7426,145.362 71.4092,148.862 70.5,152.5C 71.4239,168.818 71.7572,185.151 71.5,201.5C 71.1667,201.5 70.8333,201.5 70.5,201.5C 69.878,185.841 69.5447,170.174 69.5,154.5C 70.8741,148.942 71.8741,143.275 72.5,137.5 Z"/></g>
<g><path style="opacity:1" fill="#5fa280" d="M 47.5,147.5 C 48.4834,151.298 48.8168,155.298 48.5,159.5C 43.8333,159.5 39.1667,159.5 34.5,159.5C 34.422,156.748 34.2554,154.082 34,151.5C 35.3515,153.594 35.8515,155.927 35.5,158.5C 39.5,158.5 43.5,158.5 47.5,158.5C 47.5,154.833 47.5,151.167 47.5,147.5 Z"/></g>
<g><path style="opacity:1" fill="#60a480" d="M 210.5,142.5 C 211.147,143.274 211.48,144.274 211.5,145.5C 210.395,152.06 209.562,152.06 209,145.5C 208.501,150.155 208.334,154.821 208.5,159.5C 203.167,159.5 197.833,159.5 192.5,159.5C 192.795,161.735 192.461,163.735 191.5,165.5C 191.5,163.167 191.5,160.833 191.5,158.5C 196.833,158.5 202.167,158.5 207.5,158.5C 207.334,153.821 207.501,149.155 208,144.5C 208.667,143.167 209.333,143.167 210,144.5C 210.464,143.906 210.631,143.239 210.5,142.5 Z"/></g>
<g><path style="opacity:1" fill="#f8f4f1" d="M 277.5,159.5 C 278.371,167.8 278.705,176.133 278.5,184.5C 278.657,185.873 278.49,187.207 278,188.5C 276.203,186.326 276.036,183.993 277.5,181.5C 277.192,180.692 276.692,180.025 276,179.5C 274.826,183.046 274.16,186.713 274,190.5C 273.333,189.167 272.667,189.167 272,190.5C 267.921,180.36 267.587,170.026 271,159.5C 272.314,160.313 273.481,161.313 274.5,162.5C 275.288,161.23 276.288,160.23 277.5,159.5 Z"/></g>
<g><path style="opacity:1" fill="#5a816e" d="M 264.5,197.5 C 264.051,202.863 263.384,208.196 262.5,213.5C 261.71,212.391 261.21,211.058 261,209.5C 260.115,216.741 260.615,223.741 262.5,230.5C 264.651,244.109 264.985,257.776 263.5,271.5C 262.671,264.679 262.171,257.679 262,250.5C 261.5,258.493 261.334,266.493 261.5,274.5C 260.468,280.776 262.801,285.109 268.5,287.5C 269.268,289.9 269.602,292.233 269.5,294.5C 270.298,292.922 270.798,291.256 271,289.5C 274.262,288.159 274.762,288.492 272.5,290.5C 274.123,291.476 275.457,290.976 276.5,289C 275.944,288.617 275.611,288.117 275.5,287.5C 275.833,287.5 276.167,287.5 276.5,287.5C 278.453,288.244 279.453,289.744 279.5,292C 279.304,293.878 278.971,295.712 278.5,297.5C 231.167,297.5 183.833,297.5 136.5,297.5C 136.328,295.508 136.995,293.842 138.5,292.5C 137.741,282.367 137.074,272.201 136.5,262C 136.629,260.019 137.296,258.353 138.5,257C 137.193,255.057 137.193,253.223 138.5,251.5C 139.166,248.642 139.833,245.642 140.5,242.5C 141.096,255.866 141.929,269.199 143,282.5C 143.333,279.167 143.667,275.833 144,272.5C 144.414,272.957 144.914,273.291 145.5,273.5C 146.299,269.499 146.965,265.499 147.5,261.5C 146.244,255.919 145.577,250.252 145.5,244.5C 146.878,242.03 146.545,239.696 144.5,237.5C 145.75,234.994 146.416,232.327 146.5,229.5C 148.167,229.5 149.833,229.5 151.5,229.5C 150.969,234.078 152.302,237.911 155.5,241C 161.213,241.222 165.379,238.722 168,233.5C 169.142,235.679 169.975,238.012 170.5,240.5C 173.683,241.803 176.683,241.469 179.5,239.5C 183.059,239.716 186.559,239.382 190,238.5C 192.54,239.207 193.707,240.873 193.5,243.5C 195.5,243.5 197.5,243.5 199.5,243.5C 204.543,245.17 208.209,243.503 210.5,238.5C 212.534,240.246 214.701,240.58 217,239.5C 217.98,241.059 218.813,242.726 219.5,244.5C 223.009,242.565 226.509,242.231 230,243.5C 234.649,241.839 239.482,240.506 244.5,239.5C 244.966,231.328 244.466,223.328 243,215.5C 242.439,216.022 241.772,216.355 241,216.5C 233.593,214.673 226.093,214.173 218.5,215C 216.221,215.473 214.221,216.473 212.5,218C 209.854,218.497 207.187,218.664 204.5,218.5C 203.5,217.833 202.5,217.167 201.5,216.5C 201.082,215.778 200.416,215.278 199.5,215C 199.57,209.669 198.237,204.502 195.5,199.5C 193.472,198.451 191.472,197.451 189.5,196.5C 188.859,195.518 188.193,194.518 187.5,193.5C 187.833,193.167 188.167,192.833 188.5,192.5C 190.425,195.172 193.092,196.172 196.5,195.5C 196.5,194.167 196.5,192.833 196.5,191.5C 202.5,191.5 208.5,191.5 214.5,191.5C 214.194,194.385 214.527,197.052 215.5,199.5C 216.167,199.5 216.5,199.833 216.5,200.5C 215.596,201.209 215.263,202.209 215.5,203.5C 221.167,203.5 226.833,203.5 232.5,203.5C 233.992,197.466 234.992,190.133 235.5,181.5C 236.248,183.735 237.081,183.402 238,180.5C 238.167,181 238.333,181.5 238.5,182C 236.867,189.09 236.367,196.257 237,203.5C 243.496,206.432 250.329,207.766 257.5,207.5C 257.884,205.335 257.217,203.668 255.5,202.5C 253.253,203.374 250.92,203.708 248.5,203.5C 248.5,201.833 248.5,200.167 248.5,198.5C 251.806,200.109 254.639,199.442 257,196.5C 257.726,191.448 257.559,186.448 256.5,181.5C 256.5,175.5 256.5,169.5 256.5,163.5C 258.833,163.5 261.167,163.5 263.5,163.5C 263.189,174.914 263.523,186.248 264.5,197.5 Z"/></g>
<g><path style="opacity:1" fill="#63a481" d="M 264.5,159.5 C 264.172,171.678 264.505,183.678 265.5,195.5C 265.672,196.492 265.338,197.158 264.5,197.5C 263.523,186.248 263.189,174.914 263.5,163.5C 261.167,163.5 258.833,163.5 256.5,163.5C 256.5,169.5 256.5,175.5 256.5,181.5C 255.51,175.355 255.177,169.022 255.5,162.5C 258.167,162.5 260.833,162.5 263.5,162.5C 263.263,161.209 263.596,160.209 264.5,159.5 Z"/></g>
<g><path style="opacity:1" fill="#fefefe" d="M 180.5,167.5 C 182.604,167.201 184.604,167.534 186.5,168.5C 188.185,171.048 187.852,173.048 185.5,174.5C 184.791,175.404 183.791,175.737 182.5,175.5C 182.335,178.85 182.502,182.183 183,185.5C 184.098,186.967 185.598,187.801 187.5,188C 181.81,191.253 177.643,189.753 175,183.5C 173.667,185.5 172.333,187.5 171,189.5C 171.636,185.418 172.802,181.418 174.5,177.5C 174.977,173.207 176.977,169.873 180.5,167.5 Z"/></g>
<g><path style="opacity:1" fill="#889181" d="M 185.5,174.5 C 184.5,174.5 183.5,174.5 182.5,174.5C 182.222,172.654 182.889,171.32 184.5,170.5C 185.429,171.689 185.762,173.022 185.5,174.5 Z"/></g>
<g><path style="opacity:1" fill="#677c69" d="M 155.5,170.5 C 156.833,170.5 158.167,170.5 159.5,170.5C 160.056,175.695 159.056,180.528 156.5,185C 155.552,185.483 154.552,185.649 153.5,185.5C 153.015,180.271 153.682,175.271 155.5,170.5 Z"/></g>
<g><path style="opacity:1" fill="#5fa481" d="M 31.5,161.5 C 32.4861,165.97 32.8195,170.637 32.5,175.5C 31.5,175.5 30.5,175.5 29.5,175.5C 29.6602,177.199 29.4935,178.866 29,180.5C 28.5045,178.527 28.3379,176.527 28.5,174.5C 29.5,174.5 30.5,174.5 31.5,174.5C 31.5,170.167 31.5,165.833 31.5,161.5 Z"/></g>
<g><path style="opacity:1" fill="#fbfcfc" d="M 193.5,177.5 C 194.621,179.089 194.454,180.756 193,182.5C 192.044,183.579 191.211,184.745 190.5,186C 189.833,186.667 189.167,186.667 188.5,186C 190.82,183.522 192.486,180.689 193.5,177.5 Z"/></g>
<g><path style="opacity:1" fill="#60a681" d="M 215.5,199.5 C 214.527,197.052 214.194,194.385 214.5,191.5C 208.5,191.5 202.5,191.5 196.5,191.5C 196.664,185.833 196.997,185.5 197.5,190.5C 203.5,190.5 209.5,190.5 215.5,190.5C 215.5,193.5 215.5,196.5 215.5,199.5 Z"/></g>
<g><path style="opacity:1" fill="#5a8370" d="M 303.5,297.5 C 297.167,297.5 290.833,297.5 284.5,297.5C 285.707,290.798 287.04,284.131 288.5,277.5C 288.712,274.989 288.045,272.822 286.5,271C 287.191,269.933 287.691,268.766 288,267.5C 288.414,267.957 288.914,268.291 289.5,268.5C 290.966,264.947 290.632,261.614 288.5,258.5C 289.76,257.618 290.926,256.618 292,255.5C 295.407,239.467 297.907,223.3 299.5,207C 299,203.5 298.5,200 298,196.5C 297.178,198.788 296.511,201.122 296,203.5C 295.781,202.062 295.281,200.729 294.5,199.5C 292.014,219.916 289.014,239.916 285.5,259.5C 285.166,261.833 285.166,264.333 285.5,267C 284.033,268.098 283.199,269.598 283,271.5C 282.502,268.183 282.335,264.85 282.5,261.5C 282.5,245.5 282.5,229.5 282.5,213.5C 282.18,210.102 282.513,206.768 283.5,203.5C 284.333,220.49 284.833,237.49 285,254.5C 285.833,237.157 285.666,219.824 284.5,202.5C 283.201,201.91 282.368,200.91 282,199.5C 281.722,200.416 281.222,201.082 280.5,201.5C 280.205,199.265 280.539,197.265 281.5,195.5C 282.558,196.6 283.392,197.934 284,199.5C 283.498,196.807 283.665,194.14 284.5,191.5C 290.545,190.769 296.545,190.435 302.5,190.5C 303.427,191.906 304.427,193.406 305.5,195C 309.531,197.295 313.031,200.129 316,203.5C 318.522,208.194 318.689,212.861 316.5,217.5C 319.416,226.379 319.083,235.046 315.5,243.5C 315.68,246.073 316.68,248.24 318.5,250C 317.109,251.02 315.609,251.853 314,252.5C 313.114,257.383 311.614,262.05 309.5,266.5C 308.576,263.974 307.576,261.474 306.5,259C 309.607,256.147 310.107,252.981 308,249.5C 304.926,258.609 303.926,267.943 305,277.5C 306.762,281.048 306.262,284.381 303.5,287.5C 304.025,288.192 304.692,288.692 305.5,289C 304.898,291.036 303.898,292.87 302.5,294.5C 303.127,295.417 303.461,296.417 303.5,297.5 Z"/></g>
<g><path style="opacity:1" fill="#87b595" d="M 279.5,185.5 C 280.323,188.684 280.99,192.017 281.5,195.5C 280.539,197.265 280.205,199.265 280.5,201.5C 279.512,196.36 279.179,191.026 279.5,185.5 Z"/></g>
<g><path style="opacity:1" fill="#608871" d="M 161.5,192.5 C 162.5,192.833 163.167,193.5 163.5,194.5C 163.389,195.117 163.056,195.617 162.5,196C 165.991,197.275 169.491,197.775 173,197.5C 174.37,200.45 174.203,203.45 172.5,206.5C 173.325,207.386 174.325,207.719 175.5,207.5C 175.748,197.443 180.081,195.11 188.5,200.5C 190.176,199.272 190.509,197.939 189.5,196.5C 191.472,197.451 193.472,198.451 195.5,199.5C 198.237,204.502 199.57,209.669 199.5,215C 200.416,215.278 201.082,215.778 201.5,216.5C 200.127,216.343 198.793,216.51 197.5,217C 195.542,219.748 193.709,222.582 192,225.5C 191.505,223.527 191.338,221.527 191.5,219.5C 188.635,219.055 186.135,219.722 184,221.5C 184.188,227.046 182.688,232.046 179.5,236.5C 178.675,237.386 177.675,237.719 176.5,237.5C 176.666,231.491 176.499,225.491 176,219.5C 174.221,218.521 172.555,218.854 171,220.5C 170.2,228.784 166.366,235.117 159.5,239.5C 158.301,233.492 158.301,227.492 159.5,221.5C 160.822,221.33 161.989,221.663 163,222.5C 163.483,221.552 163.649,220.552 163.5,219.5C 161.143,219.337 158.81,219.503 156.5,220C 153.984,222.683 151.317,225.183 148.5,227.5C 147.295,226.423 146.628,225.09 146.5,223.5C 148.343,221.453 149.676,218.953 150.5,216C 150,215.5 149.5,215 149,214.5C 147.488,216.957 146.154,216.957 145,214.5C 144.808,211.053 145.475,207.72 147,204.5C 148.312,202.342 149.978,202.009 152,203.5C 152.139,200.712 153.305,198.045 155.5,195.5C 157.745,194.792 159.745,193.792 161.5,192.5 Z"/></g>
<g><path style="opacity:1" fill="#60a380" d="M 235.5,181.5 C 234.992,190.133 233.992,197.466 232.5,203.5C 226.833,203.5 221.167,203.5 215.5,203.5C 215.263,202.209 215.596,201.209 216.5,200.5C 221.056,202.442 226.056,203.108 231.5,202.5C 232.004,195.141 232.837,187.807 234,180.5C 235.043,176.774 235.543,177.107 235.5,181.5 Z"/></g>
<g><path style="opacity:1" fill="#608d76" d="M 284.5,297.5 C 282.5,297.5 280.5,297.5 278.5,297.5C 278.971,295.712 279.304,293.878 279.5,292C 279.453,289.744 278.453,288.244 276.5,287.5C 279.788,286.374 281.955,284.04 283,280.5C 282.739,276.02 282.239,271.52 281.5,267C 281.506,264.967 281.839,263.134 282.5,261.5C 282.335,264.85 282.502,268.183 283,271.5C 283.199,269.598 284.033,268.098 285.5,267C 285.166,264.333 285.166,261.833 285.5,259.5C 289.014,239.916 292.014,219.916 294.5,199.5C 295.281,200.729 295.781,202.062 296,203.5C 296.511,201.122 297.178,198.788 298,196.5C 298.5,200 299,203.5 299.5,207C 297.907,223.3 295.407,239.467 292,255.5C 290.926,256.618 289.76,257.618 288.5,258.5C 290.632,261.614 290.966,264.947 289.5,268.5C 288.914,268.291 288.414,267.957 288,267.5C 287.691,268.766 287.191,269.933 286.5,271C 288.045,272.822 288.712,274.989 288.5,277.5C 287.04,284.131 285.707,290.798 284.5,297.5 Z"/></g>
<g><path style="opacity:1" fill="#60a380" d="M 28.5,206.5 C 28.1872,210.042 28.5206,213.375 29.5,216.5C 29.6309,217.376 29.2975,218.043 28.5,218.5C 27.8167,214.248 26.8167,210.082 25.5,206C 25.6667,205.167 25.8333,204.333 26,203.5C 26.3333,204.833 26.6667,206.167 27,207.5C 27.3826,206.944 27.8826,206.611 28.5,206.5 Z"/></g>
<g><path style="opacity:1" fill="#fefefe" d="M 170.5,209.5 C 172.5,209.5 174.5,209.5 176.5,209.5C 177.161,214.168 175.161,216.168 170.5,215.5C 170.5,213.5 170.5,211.5 170.5,209.5 Z"/></g>
<g><path style="opacity:1" fill="#699579" d="M 55.5,207.5 C 53.2446,230.1 52.2446,252.767 52.5,275.5C 51.8324,262.612 50.8324,249.612 49.5,236.5C 49.9884,226.772 50.9884,217.105 52.5,207.5C 53.5,207.5 54.5,207.5 55.5,207.5 Z"/></g>
<g><path style="opacity:1" fill="#5f876e" d="M 210.5,238.5 C 213.008,236.763 216.008,235.93 219.5,236C 222.618,232.545 224.618,233.212 225.5,238C 231.612,240.695 235.779,238.862 238,232.5C 238.837,230.179 239.17,227.845 239,225.5C 237.472,228.417 236.139,231.417 235,234.5C 234.184,235.823 233.017,236.489 231.5,236.5C 231.5,229.833 231.5,223.167 231.5,216.5C 229.265,216.205 227.265,216.539 225.5,217.5C 221.858,218.08 218.191,218.58 214.5,219C 213.333,220.167 212.167,221.333 211,222.5C 210.552,227.53 209.886,232.53 209,237.5C 208.363,239.303 207.197,240.636 205.5,241.5C 204.503,233.862 204.169,226.196 204.5,218.5C 207.187,218.664 209.854,218.497 212.5,218C 214.221,216.473 216.221,215.473 218.5,215C 226.093,214.173 233.593,214.673 241,216.5C 241.772,216.355 242.439,216.022 243,215.5C 244.466,223.328 244.966,231.328 244.5,239.5C 239.482,240.506 234.649,241.839 230,243.5C 226.509,242.231 223.009,242.565 219.5,244.5C 218.813,242.726 217.98,241.059 217,239.5C 214.701,240.58 212.534,240.246 210.5,238.5 Z"/></g>
<g><path style="opacity:1" fill="#fefefe" d="M 146.5,223.5 C 146.628,225.09 147.295,226.423 148.5,227.5C 151.317,225.183 153.984,222.683 156.5,220C 158.81,219.503 161.143,219.337 163.5,219.5C 163.649,220.552 163.483,221.552 163,222.5C 161.989,221.663 160.822,221.33 159.5,221.5C 158.301,227.492 158.301,233.492 159.5,239.5C 166.366,235.117 170.2,228.784 171,220.5C 172.555,218.854 174.221,218.521 176,219.5C 176.499,225.491 176.666,231.491 176.5,237.5C 177.675,237.719 178.675,237.386 179.5,236.5C 182.688,232.046 184.188,227.046 184,221.5C 186.135,219.722 188.635,219.055 191.5,219.5C 191.338,221.527 191.505,223.527 192,225.5C 193.709,222.582 195.542,219.748 197.5,217C 198.793,216.51 200.127,216.343 201.5,216.5C 202.5,217.167 203.5,217.833 204.5,218.5C 204.169,226.196 204.503,233.862 205.5,241.5C 207.197,240.636 208.363,239.303 209,237.5C 209.886,232.53 210.552,227.53 211,222.5C 212.167,221.333 213.333,220.167 214.5,219C 218.191,218.58 221.858,218.08 225.5,217.5C 227.167,217.5 228.833,217.5 230.5,217.5C 230.177,224.022 230.51,230.355 231.5,236.5C 233.017,236.489 234.184,235.823 235,234.5C 236.139,231.417 237.472,228.417 239,225.5C 239.17,227.845 238.837,230.179 238,232.5C 235.779,238.862 231.612,240.695 225.5,238C 224.618,233.212 222.618,232.545 219.5,236C 216.008,235.93 213.008,236.763 210.5,238.5C 208.209,243.503 204.543,245.17 199.5,243.5C 199.217,242.711 198.717,242.044 198,241.5C 197.667,234.167 197.333,226.833 197,219.5C 193.956,224.623 191.289,229.956 189,235.5C 187.135,237.673 184.969,238.007 182.5,236.5C 181.145,237.188 180.145,238.188 179.5,239.5C 176.683,241.469 173.683,241.803 170.5,240.5C 169.975,238.012 169.142,235.679 168,233.5C 165.379,238.722 161.213,241.222 155.5,241C 152.302,237.911 150.969,234.078 151.5,229.5C 149.833,229.5 148.167,229.5 146.5,229.5C 146.416,232.327 145.75,234.994 144.5,237.5C 141.37,239.023 138.037,239.689 134.5,239.5C 132.852,238.19 131.186,236.857 129.5,235.5C 127.408,238.681 125.075,241.681 122.5,244.5C 119.216,245.657 115.882,245.824 112.5,245C 109.056,241.889 106.889,238.056 106,233.5C 105.5,227.175 105.334,220.842 105.5,214.5C 108.105,209.836 110.272,204.836 112,199.5C 115.743,195.741 120.243,194.574 125.5,196C 126.944,197.126 127.61,198.626 127.5,200.5C 126.052,207.408 121.718,210.741 114.5,210.5C 113.412,220.132 113.245,229.799 114,239.5C 115.349,242.956 117.849,244.123 121.5,243C 127.773,237.617 130.607,230.784 130,222.5C 130.785,220.714 131.951,219.214 133.5,218C 139.661,215.661 143.994,217.495 146.5,223.5 Z"/></g>
<g><path style="opacity:1" fill="#678b72" d="M 121.5,196.5 C 122.822,196.33 123.989,196.663 125,197.5C 126.658,204.674 123.825,208.008 116.5,207.5C 116.343,206.127 116.51,204.793 117,203.5C 118.75,201.266 120.25,198.932 121.5,196.5 Z"/></g>
<g><path style="opacity:1" fill="#6aa885" d="M 282.5,213.5 C 281.775,209.605 281.109,205.605 280.5,201.5C 281.222,201.082 281.722,200.416 282,199.5C 282.368,200.91 283.201,201.91 284.5,202.5C 285.666,219.824 285.833,237.157 285,254.5C 284.833,237.49 284.333,220.49 283.5,203.5C 282.513,206.768 282.18,210.102 282.5,213.5 Z"/></g>
<g><path style="opacity:1" fill="#7aae8d" d="M 225.5,217.5 C 227.265,216.539 229.265,216.205 231.5,216.5C 231.5,223.167 231.5,229.833 231.5,236.5C 230.51,230.355 230.177,224.022 230.5,217.5C 228.833,217.5 227.167,217.5 225.5,217.5 Z"/></g>
<g><path style="opacity:1" fill="#67826b" d="M 218.5,220.5 C 219.833,220.5 221.167,220.5 222.5,220.5C 223.55,226.223 221.883,230.89 217.5,234.5C 216.216,229.72 216.55,225.054 218.5,220.5 Z"/></g>
<g><path style="opacity:1" fill="#668e72" d="M 199.5,243.5 C 197.5,243.5 195.5,243.5 193.5,243.5C 193.707,240.873 192.54,239.207 190,238.5C 186.559,239.382 183.059,239.716 179.5,239.5C 180.145,238.188 181.145,237.188 182.5,236.5C 184.969,238.007 187.135,237.673 189,235.5C 191.289,229.956 193.956,224.623 197,219.5C 197.333,226.833 197.667,234.167 198,241.5C 198.717,242.044 199.217,242.711 199.5,243.5 Z"/></g>
<g><path style="opacity:1" fill="#74a685" d="M 262.5,213.5 C 262.5,219.167 262.5,224.833 262.5,230.5C 260.615,223.741 260.115,216.741 261,209.5C 261.21,211.058 261.71,212.391 262.5,213.5 Z"/></g>
<g><path style="opacity:1" fill="#668a71" d="M 141.5,221.5 C 143.722,221.559 144.722,222.725 144.5,225C 144.245,226.326 143.578,227.326 142.5,228C 145.402,232.369 144.402,235.536 139.5,237.5C 138.558,237.392 137.725,237.059 137,236.5C 136.172,231.798 136.338,227.131 137.5,222.5C 138.892,223.605 140.059,224.939 141,226.5C 141.494,224.866 141.66,223.199 141.5,221.5 Z"/></g>
<g><path style="opacity:1" fill="#5b9076" d="M 36.5,226.5 C 34.9744,229.561 35.3077,232.394 37.5,235C 35.0519,246.415 33.0519,257.915 31.5,269.5C 30.6562,263.593 29.3228,257.926 27.5,252.5C 27.3415,249.813 28.1748,247.48 30,245.5C 30.3333,245.833 30.6667,246.167 31,246.5C 32.9635,237.939 34.2968,229.272 35,220.5C 35.1909,222.708 35.6909,224.708 36.5,226.5 Z"/></g>
<g><path style="opacity:1" fill="#94b799" d="M 73.5,206.5 C 74.1667,208.5 74.8333,210.5 75.5,212.5C 76.1529,225.156 76.4862,237.823 76.5,250.5C 76.5,253.5 76.5,256.5 76.5,259.5C 74.9361,242.018 73.9361,224.351 73.5,206.5 Z"/></g>
<g><path style="opacity:1" fill="#5d8e75" d="M 144.5,237.5 C 146.545,239.696 146.878,242.03 145.5,244.5C 144.188,249.015 144.188,253.682 145.5,258.5C 146.176,259.602 146.842,260.602 147.5,261.5C 146.965,265.499 146.299,269.499 145.5,273.5C 144.914,273.291 144.414,272.957 144,272.5C 143.667,275.833 143.333,279.167 143,282.5C 141.929,269.199 141.096,255.866 140.5,242.5C 139.833,245.642 139.166,248.642 138.5,251.5C 138.665,248.15 138.498,244.817 138,241.5C 136.698,240.915 135.531,240.249 134.5,239.5C 138.037,239.689 141.37,239.023 144.5,237.5 Z"/></g>
<g><path style="opacity:1" fill="#61a280" d="M 145.5,244.5 C 145.577,250.252 146.244,255.919 147.5,261.5C 146.842,260.602 146.176,259.602 145.5,258.5C 144.188,253.682 144.188,249.015 145.5,244.5 Z"/></g>
<g><path style="opacity:1" fill="#619377" d="M 76.5,275.5 C 76.5,270.167 76.5,264.833 76.5,259.5C 76.5,256.5 76.5,253.5 76.5,250.5C 77.3302,240.675 77.8302,230.675 78,220.5C 78.3333,230.5 78.6667,240.5 79,250.5C 80.3083,252.134 81.1416,253.968 81.5,256C 80.1961,261.171 80.1961,266.338 81.5,271.5C 81.3446,275.345 79.6779,276.678 76.5,275.5 Z"/></g>
<g><path style="opacity:1" fill="#758973" d="M 61.5,261.5 C 68.7867,260.931 71.2867,263.931 69,270.5C 63.7934,274.993 60.2934,273.826 58.5,267C 59.1242,264.915 60.1242,263.082 61.5,261.5 Z"/></g>
<g><path style="opacity:1" fill="#6ca784" d="M 263.5,271.5 C 263.068,272.71 262.401,273.71 261.5,274.5C 261.334,266.493 261.5,258.493 262,250.5C 262.171,257.679 262.671,264.679 263.5,271.5 Z"/></g>
<g><path style="opacity:1" fill="#60a180" d="M 22.5,280.5 C 21.6533,284.799 20.9867,289.133 20.5,293.5C 19.5088,286.687 19.1755,279.687 19.5,272.5C 20.8333,272.5 22.1667,272.5 23.5,272.5C 23.7214,275.279 23.388,277.946 22.5,280.5 Z"/></g>
<g><path style="opacity:1" fill="#7a9577" d="M 270.5,276.5 C 272.5,276.833 274.5,277.167 276.5,277.5C 276.919,282.698 274.752,284.365 270,282.5C 269.322,280.402 269.489,278.402 270.5,276.5 Z"/></g>
<g><path style="opacity:1" fill="#6ba685" d="M 268.5,287.5 C 270.833,287.5 273.167,287.5 275.5,287.5C 275.611,288.117 275.944,288.617 276.5,289C 275.457,290.976 274.123,291.476 272.5,290.5C 274.762,288.492 274.262,288.159 271,289.5C 270.798,291.256 270.298,292.922 269.5,294.5C 269.602,292.233 269.268,289.9 268.5,287.5 Z"/></g>
</svg>
